SourceSans_Black-Italic.ufo
<glyph name="numbersign" format="2">
	<unicode hex="0023"/>
	<advance width="516"/>
	<outline>
		<contour>
			<point x="32" y="0" type="line"/>
			<point x="124" y="0" type="line"/>
			<point x="182" y="182" type="line"/>
			<point x="272" y="182" type="line"/>
			<point x="214" y="0" type="line"/>
			<point x="306" y="0" type="line"/>
			<point x="364" y="182" type="line"/>
			<point x="446" y="182" type="line"/>
			<point x="470" y="284" type="line"/>
			<point x="396" y="284" type="line"/>
			<point x="428" y="386" type="line"/>
			<point x="510" y="386" type="line"/>
			<point x="534" y="488" type="line"/>
			<point x="460" y="488" type="line"/>
			<point x="512" y="650" type="line"/>
			<point x="420" y="650" type="line"/>
			<point x="368" y="488" type="line"/>
			<point x="278" y="488" type="line"/>
			<point x="330" y="650" type="line"/>
			<point x="238" y="650" type="line"/>
			<point x="186" y="488" type="line"/>
			<point x="104" y="488" type="line"/>
			<point x="80" y="386" type="line"/>
			<point x="154" y="386" type="line"/>
			<point x="122" y="284" type="line"/>
			<point x="40" y="284" type="line"/>
			<point x="16" y="182" type="line"/>
			<point x="90" y="182" type="line"/>
		</contour>
		<contour>
			<point x="214" y="284" type="line"/>
			<point x="246" y="386" type="line"/>
			<point x="336" y="386" type="line"/>
			<point x="304" y="284" type="line"/>
		</contour>
	</outline>
</glyph>
<glyph name="seven" format="2">
	<unicode hex="0037"/>
	<advance width="520"/>
	<outline>
		<contour>
			<point x="92" y="0" type="curve"/>
			<point x="256" y="0" type="line"/>
			<point x="294" y="164"/>
			<point x="346" y="350"/>
			<point x="540" y="534" type="curve"/>
			<point x="560" y="634" type="line"/>
			<point x="116" y="634" type="line"/>
			<point x="90" y="500" type="line"/>
			<point x="356" y="500" type="line"/>
			<point x="228" y="364"/>
			<point x="152" y="204"/>
		</contour>
	</outline>
</glyph>
<glyph name="X" format="2">
	<unicode hex="0058"/>
	<advance width="566"/>
	<outline>
		<contour>
			<point x="-36" y="0" type="line"/>
			<point x="134" y="0" type="line"/>
			<point x="210" y="126" type="line" smooth="yes"/>
			<point x="230" y="160"/>
			<point x="250" y="193"/>
			<point x="272" y="232" type="curve"/>
			<point x="276" y="232" type="line"/>
			<point x="284" y="193"/>
			<point x="292" y="160"/>
			<point x="300" y="126" type="curve" smooth="yes"/>
			<point x="328" y="0" type="line"/>
			<point x="506" y="0" type="line"/>
			<point x="400" y="328" type="line"/>
			<point x="626" y="650" type="line"/>
			<point x="456" y="650" type="line"/>
			<point x="392" y="536" type="line" smooth="yes"/>
			<point x="375" y="506"/>
			<point x="354" y="471"/>
			<point x="332" y="430" type="curve"/>
			<point x="328" y="430" type="line"/>
			<point x="319" y="471"/>
			<point x="312" y="506"/>
			<point x="306" y="536" type="curve" smooth="yes"/>
			<point x="282" y="650" type="line"/>
			<point x="104" y="650" type="line"/>
			<point x="202" y="334" type="line"/>
		</contour>
	</outline>
	<anchor name="aboveUC" x="370" y="672"/>
	<anchor name="belowLC" x="240" y="-22"/>
</glyph>
<glyph name="c" format="2">
	<unicode hex="0063"/>
	<advance width="446"/>
	<outline>
		<contour>
			<point x="226" y="-12" type="curve" smooth="yes"/>
			<point x="304" y="-12"/>
			<point x="354" y="14"/>
			<point x="396" y="54" type="curve"/>
			<point x="330" y="144" type="line"/>
			<point x="312" y="130"/>
			<point x="292" y="116"/>
			<point x="262" y="116" type="curve" smooth="yes"/>
			<point x="216" y="116"/>
			<point x="190" y="148"/>
			<point x="190" y="198" type="curve" smooth="yes"/>
			<point x="190" y="298"/>
			<point x="246" y="384"/>
			<point x="316" y="384" type="curve" smooth="yes"/>
			<point x="342" y="384"/>
			<point x="358" y="374"/>
			<point x="376" y="358" type="curve"/>
			<point x="462" y="450" type="line"/>
			<point x="438" y="480"/>
			<point x="390" y="512"/>
			<point x="324" y="512" type="curve" smooth="yes"/>
			<point x="154" y="512"/>
			<point x="26" y="364"/>
			<point x="26" y="196" type="curve" smooth="yes"/>
			<point x="26" y="64"/>
			<point x="114" y="-12"/>
		</contour>
	</outline>
	<anchor name="aboveLC" x="300" y="522"/>
	<anchor name="aboverightLC" x="440" y="522"/>
	<anchor name="baseLC" x="210" y="0"/>
	<anchor name="belowLC" x="200" y="-22"/>
</glyph>
<glyph name="o" format="2">
	<unicode hex="006F"/>
	<advance width="538"/>
	<outline>
		<contour>
			<point x="226" y="-12" type="curve" smooth="yes"/>
			<point x="364" y="-12"/>
			<point x="510" y="110"/>
			<point x="510" y="304" type="curve" smooth="yes"/>
			<point x="510" y="428"/>
			<point x="430" y="512"/>
			<point x="310" y="512" type="curve" smooth="yes"/>
			<point x="172" y="512"/>
			<point x="26" y="390"/>
			<point x="26" y="196" type="curve" smooth="yes"/>
			<point x="26" y="72"/>
			<point x="106" y="-12"/>
		</contour>
		<contour>
			<point x="244" y="116" type="curve" smooth="yes"/>
			<point x="206" y="116"/>
			<point x="188" y="148"/>
			<point x="188" y="198" type="curve" smooth="yes"/>
			<point x="188" y="306"/>
			<point x="234" y="384"/>
			<point x="292" y="384" type="curve" smooth="yes"/>
			<point x="330" y="384"/>
			<point x="348" y="352"/>
			<point x="348" y="302" type="curve" smooth="yes"/>
			<point x="348" y="194"/>
			<point x="302" y="116"/>
		</contour>
	</outline>
	<anchor name="aboveLC" x="320" y="522"/>
	<anchor name="aboverightLC" x="570" y="522"/>
	<anchor name="belowLC" x="200" y="-22"/>
	<anchor name="hornLC" x="420" y="500"/>
	<anchor name="ogonekLC" x="210" y="0"/>
</glyph>
<glyph name="braceleft" format="2">
	<unicode hex="007B"/>
	<advance width="342"/>
	<outline>
		<contour>
			<point x="144" y="-152" type="curve" smooth="yes"/>
			<point x="212" y="-152" type="line"/>
			<point x="228" y="-68" type="line"/>
			<point x="214" y="-68" type="line" smooth="yes"/>
			<point x="184" y="-68"/>
			<point x="176" y="-59"/>
			<point x="176" y="-34" type="curve" smooth="yes"/>
			<point x="176" y="20"/>
			<point x="220" y="132"/>
			<point x="220" y="198" type="curve" smooth="yes"/>
			<point x="220" y="244"/>
			<point x="199" y="263"/>
			<point x="159" y="272" type="curve"/>
			<point x="160" y="276" type="line"/>
			<point x="215" y="288"/>
			<point x="248" y="320"/>
			<point x="264" y="400" type="curve" smooth="yes"/>
			<point x="275" y="458"/>
			<point x="281" y="505"/>
			<point x="291" y="556" type="curve" smooth="yes"/>
			<point x="301" y="608"/>
			<point x="314" y="624"/>
			<point x="351" y="624" type="curve" smooth="yes"/>
			<point x="367" y="624" type="line"/>
			<point x="385" y="708" type="line"/>
			<point x="315" y="708" type="line" smooth="yes"/>
			<point x="223" y="708"/>
			<point x="186" y="672"/>
			<point x="164" y="562" type="curve" smooth="yes"/>
			<point x="150" y="492"/>
			<point x="154" y="462"/>
			<point x="142" y="400" type="curve" smooth="yes"/>
			<point x="135" y="366"/>
			<point x="110" y="326"/>
			<point x="44" y="324" type="curve"/>
			<point x="24" y="232" type="line"/>
			<point x="78" y="230"/>
			<point x="94" y="202"/>
			<point x="94" y="172" type="curve" smooth="yes"/>
			<point x="94" y="127"/>
			<point x="44" y="18"/>
			<point x="44" y="-62" type="curve" smooth="yes"/>
			<point x="44" y="-120"/>
			<point x="70" y="-152"/>
		</contour>
	</outline>
</glyph>
<glyph name="cent" format="2">
	<unicode hex="00A2"/>
	<advance width="520"/>
	<outline>
		<contour>
			<point x="276" y="70" type="curve" smooth="yes"/>
			<point x="342" y="70"/>
			<point x="404" y="90"/>
			<point x="462" y="128" type="curve"/>
			<point x="414" y="230" type="line"/>
			<point x="384" y="208"/>
			<point x="354" y="198"/>
			<point x="316" y="198" type="curve" smooth="yes"/>
			<point x="260" y="198"/>
			<point x="226" y="242"/>
			<point x="226" y="310" type="curve" smooth="yes"/>
			<point x="226" y="396"/>
			<point x="282" y="460"/>
			<point x="366" y="460" type="curve" smooth="yes"/>
			<point x="396" y="460"/>
			<point x="416" y="448"/>
			<point x="440" y="426" type="curve"/>
			<point x="532" y="512" type="line"/>
			<point x="494" y="554"/>
			<point x="452" y="588"/>
			<point x="382" y="588" type="curve" smooth="yes"/>
			<point x="232" y="588"/>
			<point x="70" y="476"/>
			<point x="70" y="286" type="curve" smooth="yes"/>
			<point x="70" y="150"/>
			<point x="154" y="70"/>
		</contour>
		<contour>
			<point x="216" y="-20" type="line"/>
			<point x="302" y="-20" type="line"/>
			<point x="440" y="678" type="line"/>
			<point x="354" y="678" type="line"/>
		</contour>
	</outline>
</glyph>
<glyph name="yen" format="2">
	<unicode hex="00A5"/>
	<advance width="520"/>
	<outline>
		<contour>
			<point x="130" y="0" type="line"/>
			<point x="288" y="0" type="line"/>
			<point x="317" y="145" type="line"/>
			<point x="462" y="145" type="line"/>
			<point x="477" y="219" type="line"/>
			<point x="332" y="219" type="line"/>
			<point x="343" y="272" type="line"/>
			<point x="488" y="272" type="line"/>
			<point x="503" y="347" type="line"/>
			<point x="391" y="347" type="line"/>
			<point x="585" y="635" type="line"/>
			<point x="426" y="635" type="line"/>
			<point x="360" y="508" type="line" smooth="yes"/>
			<point x="336" y="465"/>
			<point x="312" y="421"/>
			<point x="288" y="377" type="curve"/>
			<point x="285" y="377" type="line"/>
			<point x="277" y="420"/>
			<point x="271" y="464"/>
			<point x="266" y="508" type="curve" smooth="yes"/>
			<point x="250" y="635" type="line"/>
			<point x="87" y="635" type="line"/>
			<point x="166" y="347" type="line"/>
			<point x="54" y="347" type="line"/>
			<point x="39" y="272" type="line"/>
			<point x="184" y="272" type="line"/>
			<point x="174" y="219" type="line"/>
			<point x="29" y="219" type="line"/>
			<point x="14" y="145" type="line"/>
			<point x="159" y="145" type="line"/>
		</contour>
	</outline>
</glyph>
<glyph name="Eth" format="2">
	<unicode hex="00D0"/>
	<advance width="652"/>
	<outline>
		<contour>
			<point x="30" y="286" type="line"/>
			<point x="386" y="286" type="line"/>
			<point x="404" y="382" type="line"/>
			<point x="124" y="382" type="line"/>
			<point x="48" y="376" type="line"/>
		</contour>
		<component base="D" xOffset="20"/>
	</outline>
	<anchor name="aboveUC" x="410" y="672"/>
	<anchor name="belowLC" x="290" y="-22"/>
</glyph>
<glyph name="thorn" format="2">
	<unicode hex="00FE"/>
	<advance width="560"/>
	<outline>
		<contour>
			<point x="-28" y="-176" type="line"/>
			<point x="132" y="-176" type="line"/>
			<point x="156" y="-52" type="line"/>
			<point x="168" y="42" type="line"/>
			<point x="170" y="42" type="line"/>
			<point x="190" y="8"/>
			<point x="226" y="-12"/>
			<point x="264" y="-12" type="curve" smooth="yes"/>
			<point x="402" y="-12"/>
			<point x="530" y="138"/>
			<point x="530" y="328" type="curve" smooth="yes"/>
			<point x="530" y="446"/>
			<point x="478" y="512"/>
			<point x="390" y="512" type="curve" smooth="yes"/>
			<point x="344" y="512"/>
			<point x="296" y="492"/>
			<point x="254" y="458" type="curve"/>
			<point x="252" y="458" type="line"/>
			<point x="278" y="550" type="line"/>
			<point x="308" y="696" type="line"/>
			<point x="148" y="696" type="line"/>
		</contour>
		<contour>
			<point x="252" y="118" type="curve" smooth="yes"/>
			<point x="232" y="118"/>
			<point x="210" y="130"/>
			<point x="200" y="156" type="curve"/>
			<point x="234" y="326" type="line"/>
			<point x="258" y="370"/>
			<point x="292" y="382"/>
			<point x="318" y="382" type="curve" smooth="yes"/>
			<point x="346" y="382"/>
			<point x="364" y="360"/>
			<point x="364" y="308" type="curve" smooth="yes"/>
			<point x="364" y="196"/>
			<point x="310" y="118"/>
		</contour>
	</outline>
	<anchor name="aboveUC" x="400" y="722"/>
	<anchor name="belowLC" x="60" y="-182"/>
</glyph>
<glyph name="Eogonek" format="2">
	<unicode hex="0118"/>
	<advance width="534"/>
	<outline>
		<contour>
			<point x="310" y="-228" type="curve" smooth="yes"/>
			<point x="356" y="-228"/>
			<point x="406" y="-214"/>
			<point x="438" y="-192" type="curve"/>
			<point x="408" y="-108" type="line"/>
			<point x="400" y="-112"/>
			<point x="390" y="-114"/>
			<point x="380" y="-114" type="curve" smooth="yes"/>
			<point x="362" y="-114"/>
			<point x="346" y="-104"/>
			<point x="346" y="-84" type="curve" smooth="yes"/>
			<point x="346" y="-56"/>
			<point x="382" y="-10"/>
			<point x="432" y="0" type="curve"/>
			<point x="458" y="134" type="line"/>
			<point x="212" y="134" type="line"/>
			<point x="240" y="268" type="line"/>
			<point x="442" y="268" type="line"/>
			<point x="468" y="402" type="line"/>
			<point x="266" y="402" type="line"/>
			<point x="288" y="516" type="line"/>
			<point x="526" y="516" type="line"/>
			<point x="552" y="650" type="line"/>
			<point x="156" y="650" type="line"/>
			<point x="26" y="0" type="line"/>
			<point x="310" y="0" type="line"/>
			<point x="256" y="-32"/>
			<point x="202" y="-88"/>
			<point x="202" y="-142" type="curve" smooth="yes"/>
			<point x="202" y="-196"/>
			<point x="248" y="-228"/>
		</contour>
	</outline>
	<anchor name="aboveUC" x="360" y="672"/>
	<anchor name="belowLC" x="220" y="-182"/>
</glyph>
<glyph name="oe" format="2">
	<unicode hex="0153"/>
	<advance width="792"/>
	<outline>
		<contour>
			<point x="216" y="-12" type="curve" smooth="yes"/>
			<point x="276" y="-12"/>
			<point x="338" y="18"/>
			<point x="386" y="74" type="curve"/>
			<point x="416" y="16"/>
			<point x="476" y="-12"/>
			<point x="544" y="-12" type="curve" smooth="yes"/>
			<point x="616" y="-12"/>
			<point x="673" y="14"/>
			<point x="710" y="40" type="curve"/>
			<point x="654" y="140" type="line"/>
			<point x="632" y="124"/>
			<point x="598" y="108"/>
			<point x="570" y="108" type="curve" smooth="yes"/>
			<point x="518" y="108"/>
			<point x="478" y="132"/>
			<point x="476" y="206" type="curve"/>
			<point x="738" y="206" type="line"/>
			<point x="746" y="222"/>
			<point x="764" y="274"/>
			<point x="764" y="322" type="curve" smooth="yes"/>
			<point x="764" y="426"/>
			<point x="720" y="512"/>
			<point x="598" y="512" type="curve" smooth="yes"/>
			<point x="544" y="512"/>
			<point x="484" y="482"/>
			<point x="438" y="428" type="curve"/>
			<point x="408" y="482"/>
			<point x="370" y="512"/>
			<point x="300" y="512" type="curve" smooth="yes"/>
			<point x="170" y="512"/>
			<point x="26" y="390"/>
			<point x="26" y="196" type="curve" smooth="yes"/>
			<point x="26" y="72"/>
			<point x="102" y="-12"/>
		</contour>
		<contour>
			<point x="244" y="116" type="curve" smooth="yes"/>
			<point x="206" y="116"/>
			<point x="188" y="148"/>
			<point x="188" y="198" type="curve" smooth="yes"/>
			<point x="188" y="306"/>
			<point x="234" y="384"/>
			<point x="282" y="384" type="curve" smooth="yes"/>
			<point x="320" y="384"/>
			<point x="338" y="352"/>
			<point x="338" y="302" type="curve" smooth="yes"/>
			<point x="338" y="194"/>
			<point x="296" y="116"/>
		</contour>
		<contour>
			<point x="488" y="302" type="line"/>
			<point x="508" y="364"/>
			<point x="544" y="390"/>
			<point x="578" y="390" type="curve" smooth="yes"/>
			<point x="620" y="390"/>
			<point x="634" y="364"/>
			<point x="634" y="330" type="curve" smooth="yes"/>
			<point x="634" y="320"/>
			<point x="632" y="310"/>
			<point x="630" y="302" type="curve"/>
		</contour>
	</outline>
	<anchor name="aboveLC" x="450" y="522"/>
	<anchor name="belowLC" x="380" y="-22"/>
</glyph>
<glyph name="Tbar" format="2">
	<unicode hex="0166"/>
	<advance width="540"/>
	<outline>
		<contour>
			<point x="72" y="252" type="line"/>
			<point x="472" y="252" type="line"/>
			<point x="492" y="360" type="line"/>
			<point x="184" y="360" type="line"/>
			<point x="92" y="354" type="line"/>
		</contour>
		<component base="T"/>
	</outline>
	<anchor name="aboveUC" x="350" y="672"/>
	<anchor name="belowLC" x="220" y="-22"/>
</glyph>
<glyph name="Dhook" format="2">
	<unicode hex="018A"/>
	<advance width="800"/>
	<outline>
		<contour>
			<point x="210" y="0" type="line"/>
			<point x="414" y="0" type="line" smooth="yes"/>
			<point x="600" y="0"/>
			<point x="774" y="130"/>
			<point x="774" y="386" type="curve" smooth="yes"/>
			<point x="774" y="570"/>
			<point x="650" y="662"/>
			<point x="460" y="662" type="curve" smooth="yes"/>
			<point x="154" y="662"/>
			<point x="42" y="530"/>
			<point x="42" y="362" type="curve" smooth="yes"/>
			<point x="42" y="302"/>
			<point x="78" y="244"/>
			<point x="136" y="210" type="curve"/>
			<point x="222" y="320" type="line"/>
			<point x="198" y="336"/>
			<point x="184" y="356"/>
			<point x="184" y="386" type="curve" smooth="yes"/>
			<point x="184" y="454"/>
			<point x="236" y="532"/>
			<point x="374" y="532" type="curve" smooth="yes"/>
			<point x="462" y="532" type="line" smooth="yes"/>
			<point x="534" y="532"/>
			<point x="610" y="502"/>
			<point x="610" y="376" type="curve" smooth="yes"/>
			<point x="610" y="196"/>
			<point x="502" y="128"/>
			<point x="410" y="128" type="curve" smooth="yes"/>
			<point x="396" y="128" type="line"/>
			<point x="484" y="570" type="line"/>
			<point x="324" y="570" type="line"/>
		</contour>
	</outline>
	<anchor name="aboveUC" x="530" y="672"/>
	<anchor name="belowLC" x="430" y="-22"/>
</glyph>
<glyph name="Ezh" format="2">
	<unicode hex="01B7"/>
	<advance width="544"/>
	<outline>
		<contour>
			<point x="226" y="-12" type="curve" smooth="yes"/>
			<point x="404" y="-12"/>
			<point x="512" y="82"/>
			<point x="512" y="234" type="curve" smooth="yes"/>
			<point x="512" y="314"/>
			<point x="471" y="365"/>
			<point x="388" y="390" type="curve"/>
			<point x="552" y="554" type="line"/>
			<point x="572" y="650" type="line"/>
			<point x="140" y="650" type="line"/>
			<point x="114" y="516" type="line"/>
			<point x="340" y="516" type="line"/>
			<point x="162" y="360" type="line"/>
			<point x="206" y="274" type="line"/>
			<point x="234" y="282"/>
			<point x="246" y="284"/>
			<point x="278" y="284" type="curve" smooth="yes"/>
			<point x="314" y="284"/>
			<point x="348" y="263"/>
			<point x="348" y="214" type="curve" smooth="yes"/>
			<point x="348" y="160"/>
			<point x="302" y="124"/>
			<point x="234" y="124" type="curve" smooth="yes"/>
			<point x="176" y="124"/>
			<point x="126" y="144"/>
			<point x="88" y="178" type="curve"/>
			<point x="16" y="74" type="line"/>
			<point x="64" y="14"/>
			<point x="148" y="-12"/>
		</contour>
	</outline>
	<anchor name="aboveUC" x="340" y="672"/>
	<anchor name="belowLC" x="250" y="-22"/>
</glyph>
<glyph name="Oogonek" format="2">
	<unicode hex="01EA"/>
	<advance width="670"/>
	<outline>
		<contour>
			<point x="246" y="-228" type="curve" smooth="yes"/>
			<point x="292" y="-228"/>
			<point x="342" y="-214"/>
			<point x="374" y="-192" type="curve"/>
			<point x="344" y="-108" type="line"/>
			<point x="336" y="-112"/>
			<point x="326" y="-114"/>
			<point x="316" y="-114" type="curve" smooth="yes"/>
			<point x="298" y="-114"/>
			<point x="282" y="-104"/>
			<point x="282" y="-84" type="curve" smooth="yes"/>
			<point x="282" y="-59"/>
			<point x="302" y="-18"/>
			<point x="362" y="-6" type="curve" smooth="yes"/>
			<point x="536" y="30"/>
			<point x="644" y="193"/>
			<point x="644" y="386" type="curve" smooth="yes"/>
			<point x="644" y="562"/>
			<point x="542" y="662"/>
			<point x="392" y="662" type="curve" smooth="yes"/>
			<point x="220" y="662"/>
			<point x="56" y="506"/>
			<point x="56" y="264" type="curve" smooth="yes"/>
			<point x="56" y="88"/>
			<point x="158" y="-12"/>
			<point x="308" y="-12" type="curve"/>
			<point x="242" y="2" type="line"/>
			<point x="210" y="-18"/>
			<point x="138" y="-76"/>
			<point x="138" y="-142" type="curve" smooth="yes"/>
			<point x="138" y="-197"/>
			<point x="184" y="-228"/>
		</contour>
		<contour>
			<point x="316" y="126" type="curve" smooth="yes"/>
			<point x="256" y="126"/>
			<point x="220" y="180"/>
			<point x="220" y="274" type="curve" smooth="yes"/>
			<point x="220" y="424"/>
			<point x="310" y="524"/>
			<point x="384" y="524" type="curve" smooth="yes"/>
			<point x="444" y="524"/>
			<point x="480" y="470"/>
			<point x="480" y="376" type="curve" smooth="yes"/>
			<point x="480" y="226"/>
			<point x="390" y="126"/>
		</contour>
	</outline>
	<anchor name="aboveUC" x="410" y="672"/>
	<anchor name="belowLC" x="250" y="-182"/>
</glyph>
<glyph name="Nlong" format="2">
	<unicode hex="0220"/>
	<advance width="676"/>
	<outline>
		<contour>
			<point x="356" y="-176" type="line"/>
			<point x="516" y="-176" type="line"/>
			<point x="626" y="360" type="line" smooth="yes"/>
			<point x="636" y="408"/>
			<point x="638" y="446"/>
			<point x="638" y="484" type="curve" smooth="yes"/>
			<point x="638" y="605"/>
			<point x="580" y="662"/>
			<point x="481" y="662" type="curve" smooth="yes"/>
			<point x="418" y="662"/>
			<point x="356" y="638"/>
			<point x="296" y="584" type="curve"/>
			<point x="306" y="650" type="line"/>
			<point x="156" y="650" type="line"/>
			<point x="26" y="0" type="line"/>
			<point x="186" y="0" type="line"/>
			<point x="274" y="438" type="line"/>
			<point x="318" y="496"/>
			<point x="366" y="524"/>
			<point x="406" y="524" type="curve" smooth="yes"/>
			<point x="448" y="524"/>
			<point x="474" y="496"/>
			<point x="474" y="438" type="curve" smooth="yes"/>
			<point x="474" y="404"/>
			<point x="466" y="372"/>
			<point x="460" y="340" type="curve" smooth="yes"/>
		</contour>
	</outline>
	<anchor name="aboveUC" x="450" y="672"/>
	<anchor name="belowLC" x="240" y="-182"/>
</glyph>
<glyph name="ou" format="2">
	<unicode hex="0223"/>
	<advance width="538"/>
	<outline>
		<contour>
			<point x="226" y="126" type="curve" smooth="yes"/>
			<point x="190" y="126"/>
			<point x="161" y="146"/>
			<point x="161" y="200" type="curve" smooth="yes"/>
			<point x="161" y="242"/>
			<point x="191" y="300"/>
			<point x="231" y="336" type="curve"/>
			<point x="289" y="310"/>
			<point x="312" y="268"/>
			<point x="312" y="223" type="curve" smooth="yes"/>
			<point x="312" y="161"/>
			<point x="270" y="126"/>
		</contour>
		<contour>
			<point x="203" y="-12" type="curve" smooth="yes"/>
			<point x="365" y="-12"/>
			<point x="486" y="106"/>
			<point x="486" y="261" type="curve" smooth="yes"/>
			<point x="486" y="340"/>
			<point x="452" y="394"/>
			<point x="399" y="426" type="curve"/>
			<point x="400" y="430" type="line"/>
			<point x="477" y="465"/>
			<point x="540" y="575"/>
			<point x="540" y="648" type="curve" smooth="yes"/>
			<point x="540" y="663"/>
			<point x="538" y="678"/>
			<point x="533" y="700" type="curve"/>
			<point x="390" y="660" type="line"/>
			<point x="392" y="652"/>
			<point x="393" y="642"/>
			<point x="393" y="631" type="curve" smooth="yes"/>
			<point x="393" y="584"/>
			<point x="366" y="516"/>
			<point x="319" y="474" type="curve"/>
			<point x="271" y="495"/>
			<point x="249" y="526"/>
			<point x="249" y="568" type="curve" smooth="yes"/>
			<point x="249" y="604"/>
			<point x="258" y="633"/>
			<point x="281" y="670" type="curve"/>
			<point x="143" y="708" type="line"/>
			<point x="110" y="663"/>
			<point x="87" y="606"/>
			<point x="87" y="539" type="curve" smooth="yes"/>
			<point x="87" y="478"/>
			<point x="113" y="427"/>
			<point x="156" y="388" type="curve"/>
			<point x="155" y="384" type="line"/>
			<point x="69" y="342"/>
			<point x="-3" y="267"/>
			<point x="-3" y="166" type="curve" smooth="yes"/>
			<point x="-3" y="55"/>
			<point x="81" y="-12"/>
		</contour>
	</outline>
	<anchor name="aboveUC" x="340" y="722"/>
	<anchor name="belowLC" x="200" y="-22"/>
</glyph>
<glyph name="Ubar" format="2">
	<unicode hex="0244"/>
	<advance width="694"/>
	<outline>
		<contour>
			<point x="32" y="314" type="line"/>
			<point x="690" y="314" type="line"/>
			<point x="710" y="416" type="line"/>
			<point x="144" y="416" type="line"/>
			<point x="52" y="410" type="line"/>
		</contour>
		<component base="U" xOffset="20"/>
	</outline>
	<anchor name="aboveUC" x="430" y="672"/>
	<anchor name="belowLC" x="310" y="-22"/>
</glyph>
<glyph name="aturned" format="2">
	<unicode hex="0250"/>
	<advance width="516"/>
	<outline>
		<contour>
			<point x="224" y="-12" type="curve" smooth="yes"/>
			<point x="294" y="-12"/>
			<point x="366" y="12"/>
			<point x="439" y="54" type="curve"/>
			<point x="396" y="154" type="line"/>
			<point x="340" y="126"/>
			<point x="304" y="112"/>
			<point x="262" y="112" type="curve" smooth="yes"/>
			<point x="224" y="112"/>
			<point x="204" y="134"/>
			<point x="204" y="168" type="curve" smooth="yes"/>
			<point x="204" y="170"/>
			<point x="206" y="178"/>
			<point x="206" y="180" type="curve"/>
			<point x="426" y="206"/>
			<point x="504" y="294"/>
			<point x="504" y="408" type="curve" smooth="yes"/>
			<point x="504" y="468"/>
			<point x="469" y="512"/>
			<point x="398" y="512" type="curve" smooth="yes"/>
			<point x="334" y="512"/>
			<point x="284" y="478"/>
			<point x="242" y="436" type="curve"/>
			<point x="238" y="436" type="line"/>
			<point x="238" y="500" type="line"/>
			<point x="108" y="500" type="line"/>
			<point x="53" y="226" type="line" smooth="yes"/>
			<point x="47" y="198"/>
			<point x="46" y="180"/>
			<point x="46" y="158" type="curve" smooth="yes"/>
			<point x="46" y="46"/>
			<point x="111" y="-12"/>
		</contour>
		<contour>
			<point x="222" y="276" type="curve"/>
			<point x="236" y="346" type="line"/>
			<point x="260" y="372"/>
			<point x="286" y="390"/>
			<point x="314" y="390" type="curve" smooth="yes"/>
			<point x="334" y="390"/>
			<point x="348" y="376"/>
			<point x="348" y="352" type="curve" smooth="yes"/>
			<point x="348" y="312"/>
			<point x="318" y="290"/>
		</contour>
	</outline>
	<anchor name="aboveLC" x="320" y="522"/>
	<anchor name="belowLC" x="230" y="-22"/>
	<anchor name="ogonekLC" x="270" y="0"/>
</glyph>
<glyph name="alphalatinturned" format="2">
	<unicode hex="0252"/>
	<advance width="566"/>
	<outline>
		<contour>
			<point x="270" y="-12" type="curve" smooth="yes"/>
			<point x="408" y="-12"/>
			<point x="536" y="138"/>
			<point x="536" y="328" type="curve" smooth="yes"/>
			<point x="536" y="446"/>
			<point x="484" y="512"/>
			<point x="396" y="512" type="curve" smooth="yes"/>
			<point x="348" y="512"/>
			<point x="290" y="484"/>
			<point x="246" y="438" type="curve"/>
			<point x="244" y="438" type="line"/>
			<point x="244" y="438"/>
			<point x="244" y="438"/>
			<point x="244" y="438" type="curve" smooth="yes"/>
			<point x="230" y="496"/>
			<point x="192" y="512"/>
			<point x="144" y="512" type="curve" smooth="yes"/>
			<point x="114" y="512"/>
			<point x="86" y="506"/>
			<point x="62" y="500" type="curve"/>
			<point x="56" y="382" type="line"/>
			<point x="64" y="384"/>
			<point x="69" y="384"/>
			<point x="71" y="384" type="curve" smooth="yes"/>
			<point x="80" y="384"/>
			<point x="86" y="378"/>
			<point x="86" y="366" type="curve" smooth="yes"/>
			<point x="86" y="362"/>
			<point x="86" y="358"/>
			<point x="84" y="350" type="curve" smooth="yes"/>
			<point x="14" y="0" type="line"/>
			<point x="146" y="0" type="line"/>
			<point x="168" y="50" type="line"/>
			<point x="170" y="50" type="line"/>
			<point x="188" y="12"/>
			<point x="228" y="-12"/>
		</contour>
		<contour>
			<point x="258" y="118" type="curve" smooth="yes"/>
			<point x="238" y="118"/>
			<point x="216" y="130"/>
			<point x="206" y="156" type="curve"/>
			<point x="240" y="326" type="line"/>
			<point x="264" y="370"/>
			<point x="298" y="382"/>
			<point x="324" y="382" type="curve" smooth="yes"/>
			<point x="352" y="382"/>
			<point x="370" y="360"/>
			<point x="370" y="308" type="curve" smooth="yes"/>
			<point x="370" y="196"/>
			<point x="316" y="118"/>
		</contour>
	</outline>
	<anchor name="aboveLC" x="350" y="522"/>
	<anchor name="belowLC" x="250" y="-22"/>
</glyph>
<glyph name="schwa" format="2">
	<unicode hex="0259"/>
	<advance width="502"/>
	<outline>
		<contour>
			<point x="200" y="-12" type="curve" smooth="yes"/>
			<point x="330" y="-12"/>
			<point x="472" y="112"/>
			<point x="472" y="296" type="curve" smooth="yes"/>
			<point x="472" y="430"/>
			<point x="392" y="512"/>
			<point x="268" y="512" type="curve" smooth="yes"/>
			<point x="198" y="512"/>
			<point x="136" y="490"/>
			<point x="94" y="456" type="curve"/>
			<point x="146" y="362" type="line"/>
			<point x="168" y="378"/>
			<point x="206" y="390"/>
			<point x="234" y="390" type="curve" smooth="yes"/>
			<point x="283" y="390"/>
			<point x="324" y="366"/>
			<point x="324" y="284" type="curve" smooth="yes"/>
			<point x="324" y="146"/>
			<point x="258" y="110"/>
			<point x="220" y="110" type="curve" smooth="yes"/>
			<point x="172" y="110"/>
			<point x="154" y="136"/>
			<point x="154" y="170" type="curve" smooth="yes"/>
			<point x="154" y="179"/>
			<point x="156" y="187"/>
			<point x="158" y="194" type="curve"/>
			<point x="340" y="194" type="line"/>
			<point x="352" y="298" type="line"/>
			<point x="50" y="298" type="line"/>
			<point x="42" y="284"/>
			<point x="24" y="228"/>
			<point x="24" y="178" type="curve" smooth="yes"/>
			<point x="24" y="74"/>
			<point x="72" y="-12"/>
		</contour>
	</outline>
	<anchor name="aboveLC" x="300" y="522"/>
	<anchor name="belowLC" x="190" y="-22"/>
	<anchor name="ogonekLC" x="190" y="0"/>
</glyph>
<glyph name="eopenreversedclosed" format="2">
	<unicode hex="025E"/>
	<advance width="544"/>
	<outline>
		<contour>
			<point x="242" y="-12" type="curve" smooth="yes"/>
			<point x="368" y="-12"/>
			<point x="492" y="62"/>
			<point x="492" y="172" type="curve" smooth="yes"/>
			<point x="492" y="218"/>
			<point x="468" y="244"/>
			<point x="408" y="258" type="curve"/>
			<point x="408" y="262" type="line"/>
			<point x="474" y="282"/>
			<point x="512" y="334"/>
			<point x="512" y="388" type="curve" smooth="yes"/>
			<point x="512" y="476"/>
			<point x="432" y="512"/>
			<point x="336" y="512" type="curve" smooth="yes"/>
			<point x="174" y="512"/>
			<point x="26" y="390"/>
			<point x="26" y="196" type="curve" smooth="yes"/>
			<point x="26" y="72"/>
			<point x="100" y="-12"/>
		</contour>
		<contour>
			<point x="264" y="110" type="curve" smooth="yes"/>
			<point x="209" y="110"/>
			<point x="188" y="144"/>
			<point x="188" y="198" type="curve" smooth="yes"/>
			<point x="188" y="310"/>
			<point x="238" y="390"/>
			<point x="306" y="390" type="curve" smooth="yes"/>
			<point x="339" y="390"/>
			<point x="356" y="374"/>
			<point x="356" y="350" type="curve" smooth="yes"/>
			<point x="356" y="324"/>
			<point x="335" y="306"/>
			<point x="292" y="306" type="curve" smooth="yes"/>
			<point x="272" y="306" type="line"/>
			<point x="252" y="202" type="line"/>
			<point x="272" y="202" type="line" smooth="yes"/>
			<point x="314" y="202"/>
			<point x="334" y="191"/>
			<point x="334" y="168" type="curve" smooth="yes"/>
			<point x="334" y="131"/>
			<point x="308" y="110"/>
		</contour>
	</outline>
	<anchor name="aboveLC" x="340" y="522"/>
	<anchor name="belowLC" x="230" y="-22"/>
</glyph>
<glyph name="ghook" format="2">
	<unicode hex="0260"/>
	<advance width="568"/>
	<outline>
		<contour>
			<point x="180" y="-196" type="curve" smooth="yes"/>
			<point x="322" y="-196"/>
			<point x="417" y="-130"/>
			<point x="448" y="20" type="curve" smooth="yes"/>
			<point x="550" y="518" type="line" smooth="yes"/>
			<point x="560" y="566"/>
			<point x="582" y="582"/>
			<point x="612" y="582" type="curve" smooth="yes"/>
			<point x="618" y="582"/>
			<point x="628" y="580"/>
			<point x="632" y="578" type="curve"/>
			<point x="678" y="696" type="line"/>
			<point x="664" y="702"/>
			<point x="640" y="708"/>
			<point x="616" y="708" type="curve" smooth="yes"/>
			<point x="484" y="708"/>
			<point x="422" y="628"/>
			<point x="404" y="540" type="curve"/>
			<point x="386" y="456" type="line"/>
			<point x="384" y="456" type="line"/>
			<point x="366" y="490"/>
			<point x="330" y="512"/>
			<point x="288" y="512" type="curve" smooth="yes"/>
			<point x="150" y="512"/>
			<point x="28" y="372"/>
			<point x="28" y="194" type="curve" smooth="yes"/>
			<point x="28" y="76"/>
			<point x="90" y="20"/>
			<point x="174" y="20" type="curve" smooth="yes"/>
			<point x="226" y="20"/>
			<point x="278" y="44"/>
			<point x="320" y="88" type="curve"/>
			<point x="294" y="6" type="line" smooth="yes"/>
			<point x="278" y="-44"/>
			<point x="238" y="-70"/>
			<point x="184" y="-70" type="curve" smooth="yes"/>
			<point x="140" y="-70"/>
			<point x="98" y="-52"/>
			<point x="60" y="-26" type="curve"/>
			<point x="-6" y="-126" type="line"/>
			<point x="54" y="-180"/>
			<point x="124" y="-196"/>
		</contour>
		<contour>
			<point x="238" y="150" type="curve" smooth="yes"/>
			<point x="212" y="150"/>
			<point x="194" y="170"/>
			<point x="194" y="214" type="curve" smooth="yes"/>
			<point x="194" y="314"/>
			<point x="242" y="382"/>
			<point x="300" y="382" type="curve" smooth="yes"/>
			<point x="318" y="382"/>
			<point x="340" y="370"/>
			<point x="352" y="344" type="curve"/>
			<point x="326" y="206" type="line"/>
			<point x="300" y="160"/>
			<point x="266" y="150"/>
		</contour>
	</outline>
	<anchor name="aboveLC" x="270" y="522"/>
	<anchor name="belowLC" x="200" y="-182"/>
</glyph>
<glyph name="lbelt" format="2">
	<unicode hex="026C"/>
	<advance width="426"/>
	<outline>
		<contour>
			<point x="146" y="278" type="curve" smooth="yes"/>
			<point x="416" y="278" type="line"/>
			<point x="432" y="374" type="line"/>
			<point x="144" y="374" type="line" smooth="yes"/>
			<point x="114" y="374"/>
			<point x="98" y="388"/>
			<point x="98" y="404" type="curve" smooth="yes"/>
			<point x="98" y="420"/>
			<point x="110" y="432"/>
			<point x="126" y="432" type="curve" smooth="yes"/>
			<point x="156" y="432"/>
			<point x="162" y="398"/>
			<point x="162" y="372" type="curve"/>
			<point x="210" y="406" type="line"/>
			<point x="210" y="454"/>
			<point x="186" y="510"/>
			<point x="108" y="510" type="curve" smooth="yes"/>
			<point x="56" y="510"/>
			<point x="12" y="468"/>
			<point x="12" y="406" type="curve" smooth="yes"/>
			<point x="12" y="332"/>
			<point x="64" y="278"/>
		</contour>
		<component base="l.a" xOffset="80"/>
	</outline>
	<anchor name="aboveUC" x="310" y="722"/>
	<anchor name="belowLC" x="170" y="-22"/>
</glyph>
<glyph name="mhook" format="2">
	<unicode hex="0271"/>
	<advance width="838"/>
	<outline>
		<contour>
			<point x="530" y="-188" type="curve" smooth="yes"/>
			<point x="654" y="-188"/>
			<point x="708" y="-102"/>
			<point x="730" y="2" type="curve"/>
			<point x="792" y="310" type="line" smooth="yes"/>
			<point x="797" y="334"/>
			<point x="800" y="360"/>
			<point x="800" y="382" type="curve" smooth="yes"/>
			<point x="800" y="468"/>
			<point x="764" y="512"/>
			<point x="682" y="512" type="curve" smooth="yes"/>
			<point x="624" y="512"/>
			<point x="568" y="476"/>
			<point x="516" y="428" type="curve"/>
			<point x="500" y="480"/>
			<point x="472" y="512"/>
			<point x="400" y="512" type="curve" smooth="yes"/>
			<point x="342" y="512"/>
			<point x="286" y="476"/>
			<point x="240" y="436" type="curve"/>
			<point x="236" y="436" type="line"/>
			<point x="236" y="500" type="line"/>
			<point x="106" y="500" type="line"/>
			<point x="8" y="0" type="line"/>
			<point x="168" y="0" type="line"/>
			<point x="230" y="320" type="line"/>
			<point x="266" y="358"/>
			<point x="292" y="376"/>
			<point x="314" y="376" type="curve" smooth="yes"/>
			<point x="338" y="376"/>
			<point x="354" y="362"/>
			<point x="354" y="334" type="curve" smooth="yes"/>
			<point x="354" y="322"/>
			<point x="350" y="308"/>
			<point x="346" y="290" type="curve" smooth="yes"/>
			<point x="288" y="0" type="line"/>
			<point x="448" y="0" type="line"/>
			<point x="512" y="320" type="line"/>
			<point x="548" y="358"/>
			<point x="574" y="376"/>
			<point x="594" y="376" type="curve" smooth="yes"/>
			<point x="620" y="376"/>
			<point x="636" y="362"/>
			<point x="636" y="334" type="curve" smooth="yes"/>
			<point x="636" y="322"/>
			<point x="632" y="308"/>
			<point x="628" y="290" type="curve" smooth="yes"/>
			<point x="572" y="10" type="line"/>
			<point x="560" y="-42"/>
			<point x="548" y="-62"/>
			<point x="516" y="-62" type="curve" smooth="yes"/>
			<point x="502" y="-62"/>
			<point x="488" y="-58"/>
			<point x="474" y="-50" type="curve"/>
			<point x="426" y="-164" type="line"/>
			<point x="462" y="-182"/>
			<point x="494" y="-188"/>
		</contour>
	</outline>
	<anchor name="aboveLC" x="490" y="522"/>
	<anchor name="belowLC" x="330" y="-182"/>
</glyph>
<glyph name="nsmall" format="2">
	<unicode hex="0274"/>
	<advance width="542"/>
	<outline>
		<contour>
			<point x="8" y="0" type="line"/>
			<point x="157" y="0" type="line"/>
			<point x="180" y="114" type="line" smooth="yes"/>
			<point x="190" y="163"/>
			<point x="195" y="227"/>
			<point x="200" y="288" type="curve"/>
			<point x="204" y="288" type="line"/>
			<point x="211" y="258"/>
			<point x="221" y="212"/>
			<point x="230" y="184" type="curve" smooth="yes"/>
			<point x="288" y="0" type="line"/>
			<point x="432" y="0" type="line"/>
			<point x="532" y="500" type="line"/>
			<point x="382" y="500" type="line"/>
			<point x="360" y="386" type="line" smooth="yes"/>
			<point x="351" y="337"/>
			<point x="344" y="272"/>
			<point x="338" y="212" type="curve"/>
			<point x="335" y="212" type="line"/>
			<point x="328" y="241"/>
			<point x="319" y="288"/>
			<point x="310" y="316" type="curve" smooth="yes"/>
			<point x="252" y="500" type="line"/>
			<point x="108" y="500" type="line"/>
		</contour>
	</outline>
	<anchor name="aboveLC" x="320" y="522"/>
	<anchor name="belowLC" x="230" y="-22"/>
</glyph>
<glyph name="oesmall" format="2">
	<unicode hex="0276"/>
	<advance width="702"/>
	<outline>
		<contour>
			<point x="228" y="-12" type="curve" smooth="yes"/>
			<point x="268" y="-12"/>
			<point x="298" y="-10"/>
			<point x="346" y="0" type="curve"/>
			<point x="622" y="0" type="line"/>
			<point x="644" y="112" type="line"/>
			<point x="448" y="112" type="line"/>
			<point x="468" y="206" type="line"/>
			<point x="626" y="206" type="line"/>
			<point x="646" y="302" type="line"/>
			<point x="486" y="302" type="line"/>
			<point x="504" y="388" type="line"/>
			<point x="690" y="388" type="line"/>
			<point x="712" y="500" type="line"/>
			<point x="444" y="500" type="line"/>
			<point x="398" y="510"/>
			<point x="372" y="512"/>
			<point x="334" y="512" type="curve" smooth="yes"/>
			<point x="182" y="512"/>
			<point x="26" y="385"/>
			<point x="26" y="192" type="curve" smooth="yes"/>
			<point x="26" y="52"/>
			<point x="123" y="-12"/>
		</contour>
		<contour>
			<point x="262" y="116" type="curve" smooth="yes"/>
			<point x="224" y="116"/>
			<point x="188" y="135"/>
			<point x="188" y="210" type="curve" smooth="yes"/>
			<point x="188" y="304"/>
			<point x="243" y="384"/>
			<point x="316" y="384" type="curve" smooth="yes"/>
			<point x="325" y="384"/>
			<point x="335" y="383"/>
			<point x="346" y="380" type="curve"/>
			<point x="294" y="120" type="line"/>
			<point x="282" y="117"/>
			<point x="271" y="116"/>
		</contour>
	</outline>
	<anchor name="aboveLC" x="440" y="522"/>
	<anchor name="belowLC" x="370" y="-22"/>
</glyph>
<glyph name="shook" format="2">
	<unicode hex="0282"/>
	<advance width="432"/>
	<outline>
		<contour>
			<point x="112" y="-188" type="curve" smooth="yes"/>
			<point x="140" y="-188"/>
			<point x="162" y="-182"/>
			<point x="184" y="-174" type="curve"/>
			<point x="170" y="-58" type="line"/>
			<point x="158" y="-62"/>
			<point x="154" y="-62"/>
			<point x="144" y="-62" type="curve" smooth="yes"/>
			<point x="118" y="-62"/>
			<point x="104" y="-44"/>
			<point x="104" y="-14" type="curve" smooth="yes"/>
			<point x="104" y="-8"/>
			<point x="106" y="8"/>
			<point x="112" y="28" type="curve"/>
			<point x="78" y="10" type="line"/>
			<point x="114" y="-6"/>
			<point x="152" y="-12"/>
			<point x="172" y="-12" type="curve" smooth="yes"/>
			<point x="298" y="-12"/>
			<point x="388" y="56"/>
			<point x="388" y="156" type="curve" smooth="yes"/>
			<point x="388" y="230"/>
			<point x="336" y="270"/>
			<point x="288" y="296" type="curve" smooth="yes"/>
			<point x="250" y="318"/>
			<point x="208" y="330"/>
			<point x="208" y="358" type="curve" smooth="yes"/>
			<point x="208" y="378"/>
			<point x="228" y="394"/>
			<point x="260" y="394" type="curve" smooth="yes"/>
			<point x="290" y="394"/>
			<point x="322" y="374"/>
			<point x="348" y="350" type="curve"/>
			<point x="428" y="432" type="line"/>
			<point x="386" y="478"/>
			<point x="330" y="512"/>
			<point x="260" y="512" type="curve" smooth="yes"/>
			<point x="148" y="512"/>
			<point x="58" y="440"/>
			<point x="58" y="344" type="curve" smooth="yes"/>
			<point x="58" y="278"/>
			<point x="105" y="232"/>
			<point x="154" y="204" type="curve" smooth="yes"/>
			<point x="206" y="174"/>
			<point x="238" y="164"/>
			<point x="238" y="138" type="curve" smooth="yes"/>
			<point x="238" y="118"/>
			<point x="212" y="104"/>
			<point x="182" y="104" type="curve" smooth="yes"/>
			<point x="154" y="104"/>
			<point x="124" y="107"/>
			<point x="16" y="156" type="curve"/>
			<point x="12" y="154" type="line"/>
			<point x="-16" y="66"/>
			<point x="-28" y="16"/>
			<point x="-28" y="-48" type="curve" smooth="yes"/>
			<point x="-28" y="-126"/>
			<point x="25" y="-188"/>
		</contour>
	</outline>
	<anchor name="aboveLC" x="270" y="522"/>
	<anchor name="belowLC" x="180" y="-182"/>
</glyph>
<glyph name="ubar" format="2">
	<unicode hex="0289"/>
	<advance width="592"/>
	<outline>
		<contour>
			<point x="-2" y="256" type="line"/>
			<point x="600" y="256" type="line"/>
			<point x="622" y="360" type="line"/>
			<point x="102" y="360" type="line"/>
			<point x="18" y="354" type="line"/>
		</contour>
		<component base="u" xOffset="20"/>
	</outline>
	<anchor name="aboveLC" x="340" y="522"/>
	<anchor name="baseLC" x="230" y="0"/>
	<anchor name="belowLC" x="260" y="-22"/>
	<anchor name="ogonekLC" x="370" y="0"/>
</glyph>
<glyph name="dezh" format="2">
	<unicode hex="02A4"/>
	<advance width="888"/>
	<outline>
		<contour>
			<point x="158" y="-12" type="curve" smooth="yes"/>
			<point x="203" y="-12"/>
			<point x="255" y="17"/>
			<point x="298" y="62" type="curve"/>
			<point x="300" y="62" type="line"/>
			<point x="300" y="0" type="line"/>
			<point x="430" y="0" type="line"/>
			<point x="570" y="696" type="line"/>
			<point x="410" y="696" type="line"/>
			<point x="382" y="550" type="line"/>
			<point x="372" y="456" type="line"/>
			<point x="370" y="456" type="line"/>
			<point x="352" y="489"/>
			<point x="322" y="512"/>
			<point x="284" y="512" type="curve" smooth="yes"/>
			<point x="151" y="512"/>
			<point x="28" y="358"/>
			<point x="28" y="162" type="curve" smooth="yes"/>
			<point x="28" y="50"/>
			<point x="77" y="-12"/>
		</contour>
		<contour>
			<point x="230" y="118" type="curve" smooth="yes"/>
			<point x="208" y="118"/>
			<point x="194" y="137"/>
			<point x="194" y="182" type="curve" smooth="yes"/>
			<point x="194" y="300"/>
			<point x="243" y="382"/>
			<point x="296" y="382" type="curve" smooth="yes"/>
			<point x="311" y="382"/>
			<point x="328" y="369"/>
			<point x="340" y="344" type="curve"/>
			<point x="308" y="184" type="line"/>
			<point x="281" y="131"/>
			<point x="253" y="118"/>
		</contour>
		<contour>
			<point x="566" y="-186" type="curve" smooth="yes"/>
			<point x="708" y="-186"/>
			<point x="822" y="-64"/>
			<point x="822" y="72" type="curve" smooth="yes"/>
			<point x="822" y="150"/>
			<point x="783" y="228"/>
			<point x="686" y="228" type="curve"/>
			<point x="701" y="203" type="line"/>
			<point x="866" y="408" type="line"/>
			<point x="884" y="500" type="line"/>
			<point x="508" y="500" type="line"/>
			<point x="484" y="376" type="line"/>
			<point x="674" y="376" type="line"/>
			<point x="520" y="190" type="line"/>
			<point x="560" y="110" type="line"/>
			<point x="581" y="117"/>
			<point x="593" y="122"/>
			<point x="612" y="122" type="curve" smooth="yes"/>
			<point x="637" y="122"/>
			<point x="660" y="103"/>
			<point x="660" y="60" type="curve" smooth="yes"/>
			<point x="660" y="-14"/>
			<point x="614" y="-60"/>
			<point x="572" y="-60" type="curve" smooth="yes"/>
			<point x="527" y="-60"/>
			<point x="509" y="-39"/>
			<point x="482" y="-10" type="curve"/>
			<point x="400" y="-102" type="line"/>
			<point x="435" y="-147"/>
			<point x="483" y="-186"/>
		</contour>
	</outline>
	<anchor name="aboveUC" x="490" y="722"/>
	<anchor name="belowLC" x="340" y="-182"/>
</glyph>
<glyph name="rturned.sups" format="2">
	<unicode hex="02B4"/>
	<advance width="264"/>
	<outline>
		<contour>
			<point x="67" y="360" type="curve" smooth="yes"/>
			<point x="104" y="360"/>
			<point x="139" y="387"/>
			<point x="164" y="422" type="curve"/>
			<point x="166" y="422" type="line"/>
			<point x="164" y="368" type="line"/>
			<point x="254" y="368" type="line"/>
			<point x="320" y="700" type="line"/>
			<point x="209" y="700" type="line"/>
			<point x="171" y="503" type="line"/>
			<point x="148" y="470"/>
			<point x="124" y="456"/>
			<point x="94" y="456" type="curve" smooth="yes"/>
			<point x="83" y="456"/>
			<point x="74" y="458"/>
			<point x="66" y="462" type="curve"/>
			<point x="30" y="368" type="line"/>
			<point x="36" y="364"/>
			<point x="48" y="360"/>
		</contour>
	</outline>
</glyph>
<glyph name="downtackmod" format="2">
	<unicode hex="02D5"/>
	<advance width="366"/>
	<outline>
		<contour>
			<point x="126" y="95" type="line"/>
			<point x="226" y="95" type="line"/>
			<point x="226" y="347" type="line"/>
			<point x="342" y="347" type="line"/>
			<point x="342" y="439" type="line"/>
			<point x="10" y="439" type="line"/>
			<point x="10" y="347" type="line"/>
			<point x="126" y="347" type="line"/>
		</contour>
	</outline>
</glyph>
<glyph name="gammalatin.sups" format="2">
	<unicode hex="02E0"/>
	<advance width="350"/>
	<outline>
		<contour>
			<point x="176" y="234" type="curve" smooth="yes"/>
			<point x="261" y="234"/>
			<point x="310" y="298"/>
			<point x="310" y="361" type="curve" smooth="yes"/>
			<point x="310" y="392"/>
			<point x="297" y="420"/>
			<point x="278" y="472" type="curve"/>
			<point x="169" y="472" type="line"/>
			<point x="108" y="394"/>
			<point x="82" y="364"/>
			<point x="82" y="314" type="curve" smooth="yes"/>
			<point x="82" y="265"/>
			<point x="118" y="234"/>
		</contour>
		<contour>
			<point x="145" y="415" type="line"/>
			<point x="277" y="415" type="line"/>
			<point x="435" y="700" type="line"/>
			<point x="326" y="700" type="line"/>
			<point x="269" y="578" type="line"/>
			<point x="256" y="550"/>
			<point x="244" y="531"/>
			<point x="231" y="501" type="curve"/>
			<point x="228" y="501" type="line"/>
			<point x="226" y="531"/>
			<point x="222" y="550"/>
			<point x="221" y="578" type="curve"/>
			<point x="212" y="700" type="line"/>
			<point x="97" y="700" type="line"/>
		</contour>
		<contour>
			<point x="190" y="305" type="curve" smooth="yes"/>
			<point x="180" y="305"/>
			<point x="172" y="312"/>
			<point x="172" y="323" type="curve" smooth="yes"/>
			<point x="172" y="336"/>
			<point x="183" y="356"/>
			<point x="204" y="389" type="curve"/>
			<point x="207" y="389" type="line"/>
			<point x="214" y="370"/>
			<point x="218" y="356"/>
			<point x="218" y="345" type="curve" smooth="yes"/>
			<point x="218" y="321"/>
			<point x="205" y="305"/>
		</contour>
	</outline>
</glyph>
<glyph name="l.sups" format="2">
	<unicode hex="02E1"/>
	<advance width="186"/>
	<outline>
		<contour>
			<point x="161" y="360" type="curve" smooth="yes"/>
			<point x="185" y="360"/>
			<point x="205" y="364"/>
			<point x="217" y="368" type="curve"/>
			<point x="219" y="449" type="line"/>
			<point x="214" y="447"/>
			<point x="213" y="447"/>
			<point x="209" y="447" type="curve" smooth="yes"/>
			<point x="202" y="447"/>
			<point x="195" y="449"/>
			<point x="195" y="463" type="curve" smooth="yes"/>
			<point x="195" y="466"/>
			<point x="196" y="472"/>
			<point x="197" y="475" type="curve"/>
			<point x="268" y="828" type="line"/>
			<point x="156" y="828" type="line"/>
			<point x="87" y="481" type="line" smooth="yes"/>
			<point x="83" y="462"/>
			<point x="82" y="449"/>
			<point x="82" y="435" type="curve" smooth="yes"/>
			<point x="82" y="389"/>
			<point x="104" y="360"/>
		</contour>
	</outline>
</glyph>
<glyph name="acutecmb" format="2">
	<unicode hex="0301"/>
	<outline>
		<contour>
			<point x="10" y="570" type="line"/>
			<point x="140" y="570" type="line"/>
			<point x="350" y="742" type="line"/>
			<point x="340" y="760" type="line"/>
			<point x="160" y="760" type="line"/>
		</contour>
	</outline>
	<anchor name="_aboveLC" x="100" y="522"/>
</glyph>
<glyph name="hoicmb" format="2">
	<unicode hex="0309"/>
	<outline>
		<contour>
			<point x="52" y="566" type="line"/>
			<point x="160" y="570"/>
			<point x="226" y="624"/>
			<point x="226" y="702" type="curve" smooth="yes"/>
			<point x="226" y="762"/>
			<point x="180" y="794"/>
			<point x="54" y="796" type="curve"/>
			<point x="26" y="702" type="line"/>
			<point x="76" y="698"/>
			<point x="96" y="687"/>
			<point x="96" y="669" type="curve" smooth="yes"/>
			<point x="96" y="646"/>
			<point x="78" y="636"/>
			<point x="48" y="632" type="curve"/>
		</contour>
	</outline>
	<anchor name="_aboveLC" x="100" y="522"/>
	<anchor name="aboveLC" x="140" y="732"/>
</glyph>
<glyph name="lefttackbelowcmb" format="2">
	<unicode hex="0318"/>
	<outline>
		<contour>
			<point x="-24" y="-250" type="line"/>
			<point x="60" y="-250" type="line"/>
			<point x="102" y="-42" type="line"/>
			<point x="18" y="-42" type="line"/>
			<point x="6" y="-108" type="line"/>
			<point x="-100" y="-108" type="line"/>
			<point x="-116" y="-184" type="line"/>
			<point x="-10" y="-184" type="line"/>
		</contour>
	</outline>
	<anchor name="_belowLC" x="0" y="-22"/>
</glyph>
<glyph name="downtackbelowcmb" format="2">
	<unicode hex="031E"/>
	<outline>
		<contour>
			<point x="-92" y="-250" type="line"/>
			<point x="-8" y="-250" type="line"/>
			<point x="14" y="-142" type="line"/>
			<point x="80" y="-142" type="line"/>
			<point x="96" y="-66" type="line"/>
			<point x="-120" y="-66" type="line"/>
			<point x="-136" y="-142" type="line"/>
			<point x="-70" y="-142" type="line"/>
		</contour>
	</outline>
	<anchor name="_belowLC" x="0" y="-22"/>
</glyph>
<glyph name="seagullbelowcmb" format="2">
	<unicode hex="033C"/>
	<outline>
		<contour>
			<point x="-154" y="-240" type="line"/>
			<point x="-142" y="-184"/>
			<point x="-128" y="-166"/>
			<point x="-106" y="-166" type="curve" smooth="yes"/>
			<point x="-84" y="-166"/>
			<point x="-78" y="-178"/>
			<point x="-78" y="-194" type="curve" smooth="yes"/>
			<point x="-78" y="-204"/>
			<point x="-80" y="-212"/>
			<point x="-86" y="-238" type="curve"/>
			<point x="-10" y="-238" type="line"/>
			<point x="-2" y="-190"/>
			<point x="8" y="-166"/>
			<point x="37" y="-166" type="curve" smooth="yes"/>
			<point x="54" y="-166"/>
			<point x="64" y="-174"/>
			<point x="64" y="-198" type="curve" smooth="yes"/>
			<point x="64" y="-208"/>
			<point x="62" y="-224"/>
			<point x="58" y="-240" type="curve"/>
			<point x="142" y="-228" type="line"/>
			<point x="146" y="-206"/>
			<point x="150" y="-178"/>
			<point x="150" y="-159" type="curve" smooth="yes"/>
			<point x="150" y="-96"/>
			<point x="123" y="-64"/>
			<point x="64" y="-64" type="curve" smooth="yes"/>
			<point x="30" y="-64"/>
			<point x="-2" y="-82"/>
			<point x="-21" y="-116" type="curve"/>
			<point x="-25" y="-116" type="line"/>
			<point x="-30" y="-82"/>
			<point x="-54" y="-64"/>
			<point x="-90" y="-64" type="curve" smooth="yes"/>
			<point x="-165" y="-64"/>
			<point x="-210" y="-119"/>
			<point x="-232" y="-228" type="curve"/>
		</contour>
	</outline>
	<anchor name="_belowLC" x="0" y="-22"/>
</glyph>
<glyph name="kappa" format="2">
	<unicode hex="03BA"/>
	<advance width="524"/>
	<outline>
		<contour>
			<point x="4" y="0" type="line"/>
			<point x="153" y="0" type="line"/>
			<point x="159" y="30" type="line" smooth="yes"/>
			<point x="176" y="114"/>
			<point x="198" y="154"/>
			<point x="236" y="188" type="curve" smooth="yes"/>
			<point x="374" y="310"/>
			<point x="458" y="364"/>
			<point x="528" y="388" type="curve"/>
			<point x="470" y="518" type="line"/>
			<point x="380" y="474"/>
			<point x="296" y="398"/>
			<point x="220" y="291" type="curve"/>
			<point x="216" y="291" type="line"/>
			<point x="232" y="374" type="line" smooth="yes"/>
			<point x="240" y="416"/>
			<point x="246" y="467"/>
			<point x="246" y="500" type="curve"/>
			<point x="88" y="500" type="line"/>
			<point x="88" y="446"/>
			<point x="80" y="382"/>
			<point x="72" y="342" type="curve" smooth="yes"/>
		</contour>
		<contour>
			<point x="315" y="-11" type="curve"/>
			<point x="492" y="0" type="line"/>
			<point x="448" y="70"/>
			<point x="388" y="176"/>
			<point x="368" y="302" type="curve"/>
			<point x="244" y="209" type="line"/>
			<point x="265" y="106"/>
			<point x="294" y="32"/>
		</contour>
	</outline>
	<anchor name="aboveLC" x="320" y="522"/>
	<anchor name="belowLC" x="240" y="-22"/>
</glyph>
<glyph name="nu" format="2">
	<unicode hex="03BD"/>
	<advance width="514"/>
	<outline>
		<contour>
			<point x="98" y="0" type="curve"/>
			<point x="238" y="-12" type="line"/>
			<point x="390" y="170"/>
			<point x="476" y="308"/>
			<point x="538" y="496" type="curve"/>
			<point x="382" y="512" type="line"/>
			<point x="352" y="392"/>
			<point x="304" y="264"/>
			<point x="230" y="152" type="curve"/>
			<point x="226" y="152" type="line"/>
			<point x="236" y="264"/>
			<point x="218" y="426"/>
			<point x="198" y="512" type="curve"/>
			<point x="28" y="492" type="line"/>
			<point x="72" y="374"/>
			<point x="110" y="192"/>
		</contour>
	</outline>
	<anchor name="aboveLC" x="280" y="522"/>
	<anchor name="belowLC" x="180" y="-22"/>
</glyph>
<glyph name="upsilon" format="2">
	<unicode hex="03C5"/>
	<advance width="530"/>
	<outline>
		<contour>
			<point x="206" y="-12" type="curve" smooth="yes"/>
			<point x="382" y="-12"/>
			<point x="500" y="140"/>
			<point x="500" y="409" type="curve" smooth="yes"/>
			<point x="500" y="436"/>
			<point x="500" y="460"/>
			<point x="494" y="510" type="curve"/>
			<point x="338" y="476" type="line"/>
			<point x="340" y="450"/>
			<point x="342" y="420"/>
			<point x="342" y="394" type="curve" smooth="yes"/>
			<point x="342" y="228"/>
			<point x="302" y="116"/>
			<point x="226" y="116" type="curve" smooth="yes"/>
			<point x="198" y="116"/>
			<point x="180" y="136"/>
			<point x="180" y="172" type="curve" smooth="yes"/>
			<point x="180" y="222"/>
			<point x="236" y="370"/>
			<point x="236" y="502" type="curve"/>
			<point x="82" y="498" type="line"/>
			<point x="76" y="354"/>
			<point x="30" y="240"/>
			<point x="30" y="160" type="curve" smooth="yes"/>
			<point x="30" y="65"/>
			<point x="82" y="-12"/>
		</contour>
	</outline>
	<anchor name="aboveLC" x="290" y="522"/>
	<anchor name="belowLC" x="210" y="-22"/>
</glyph>
<glyph name="psi" format="2">
	<unicode hex="03C8"/>
	<advance width="728"/>
	<outline>
		<contour>
			<point x="196" y="-176" type="line"/>
			<point x="340" y="-176" type="line"/>
			<point x="502" y="630" type="line"/>
			<point x="358" y="630" type="line"/>
		</contour>
		<contour>
			<point x="260" y="-12" type="curve"/>
			<point x="260" y="116" type="line"/>
			<point x="220" y="116"/>
			<point x="180" y="152"/>
			<point x="180" y="212" type="curve" smooth="yes"/>
			<point x="180" y="260"/>
			<point x="236" y="406"/>
			<point x="236" y="502" type="curve"/>
			<point x="82" y="498" type="line"/>
			<point x="76" y="390"/>
			<point x="30" y="276"/>
			<point x="30" y="200" type="curve" smooth="yes"/>
			<point x="30" y="81"/>
			<point x="110" y="-12"/>
		</contour>
		<contour>
			<point x="360" y="-12" type="line"/>
			<point x="570" y="-12"/>
			<point x="700" y="122"/>
			<point x="700" y="389" type="curve" smooth="yes"/>
			<point x="700" y="422"/>
			<point x="698" y="450"/>
			<point x="690" y="510" type="curve"/>
			<point x="534" y="476" type="line"/>
			<point x="542" y="406"/>
			<point x="542" y="398"/>
			<point x="542" y="374" type="curve" smooth="yes"/>
			<point x="542" y="210"/>
			<point x="486" y="116"/>
			<point x="360" y="116" type="curve"/>
		</contour>
	</outline>
	<anchor name="aboveLC" x="430" y="662"/>
	<anchor name="belowLC" x="270" y="-182"/>
</glyph>
<glyph name="Yeru" format="2">
	<unicode hex="042B"/>
	<advance width="852"/>
	<outline>
		<contour>
			<point x="26" y="0" type="line"/>
			<point x="252" y="0" type="line" smooth="yes"/>
			<point x="404" y="0"/>
			<point x="542" y="70"/>
			<point x="542" y="246" type="curve" smooth="yes"/>
			<point x="542" y="350"/>
			<point x="466" y="420"/>
			<point x="330" y="420" type="curve" smooth="yes"/>
			<point x="270" y="420" type="line"/>
			<point x="316" y="650" type="line"/>
			<point x="156" y="650" type="line"/>
		</contour>
		<contour>
			<point x="210" y="126" type="line"/>
			<point x="244" y="294" type="line"/>
			<point x="296" y="294" type="line" smooth="yes"/>
			<point x="356" y="294"/>
			<point x="384" y="272"/>
			<point x="384" y="222" type="curve" smooth="yes"/>
			<point x="384" y="166"/>
			<point x="344" y="126"/>
			<point x="264" y="126" type="curve" smooth="yes"/>
		</contour>
		<contour>
			<point x="566" y="0" type="line"/>
			<point x="726" y="0" type="line"/>
			<point x="856" y="650" type="line"/>
			<point x="696" y="650" type="line"/>
		</contour>
	</outline>
	<anchor name="aboveUC" x="500" y="672"/>
</glyph>
<glyph name="Ya" format="2">
	<unicode hex="042F"/>
	<advance width="616"/>
	<outline>
		<contour>
			<point x="330" y="0" type="line"/>
			<point x="490" y="0" type="line"/>
			<point x="620" y="650" type="line"/>
			<point x="394" y="650" type="line" smooth="yes"/>
			<point x="240" y="650"/>
			<point x="100" y="584"/>
			<point x="100" y="412" type="curve" smooth="yes"/>
			<point x="100" y="286"/>
			<point x="222" y="224"/>
			<point x="310" y="224" type="curve" smooth="yes"/>
			<point x="376" y="224" type="line"/>
		</contour>
		<contour>
			<point x="346" y="350" type="line" smooth="yes"/>
			<point x="288" y="350"/>
			<point x="258" y="376"/>
			<point x="258" y="424" type="curve" smooth="yes"/>
			<point x="258" y="490"/>
			<point x="298" y="526"/>
			<point x="381" y="526" type="curve" smooth="yes"/>
			<point x="436" y="526" type="line"/>
			<point x="402" y="350" type="line"/>
		</contour>
		<contour>
			<point x="-26" y="0" type="line"/>
			<point x="150" y="0" type="line"/>
			<point x="346" y="268" type="line"/>
			<point x="264" y="372" type="line"/>
		</contour>
	</outline>
	<anchor name="aboveUC" x="388" y="672"/>
</glyph>
<glyph name="ghe" format="2">
	<unicode hex="0433"/>
	<advance width="426"/>
	<outline>
		<contour>
			<point x="172" y="-12" type="curve" smooth="yes"/>
			<point x="254" y="-12"/>
			<point x="324" y="20"/>
			<point x="380" y="58" type="curve"/>
			<point x="328" y="150" type="line"/>
			<point x="280" y="120"/>
			<point x="230" y="104"/>
			<point x="192" y="104" type="curve" smooth="yes"/>
			<point x="172" y="104"/>
			<point x="160" y="116"/>
			<point x="160" y="134" type="curve" smooth="yes"/>
			<point x="160" y="194"/>
			<point x="416" y="218"/>
			<point x="416" y="378" type="curve" smooth="yes"/>
			<point x="416" y="464"/>
			<point x="358" y="512"/>
			<point x="254" y="512" type="curve" smooth="yes"/>
			<point x="190" y="512"/>
			<point x="118" y="490"/>
			<point x="64" y="446" type="curve"/>
			<point x="126" y="356" type="line"/>
			<point x="162" y="380"/>
			<point x="207" y="394"/>
			<point x="236" y="394" type="curve" smooth="yes"/>
			<point x="254" y="394"/>
			<point x="264" y="384"/>
			<point x="264" y="366" type="curve" smooth="yes"/>
			<point x="264" y="306"/>
			<point x="8" y="288"/>
			<point x="8" y="128" type="curve" smooth="yes"/>
			<point x="8" y="43"/>
			<point x="60" y="-12"/>
		</contour>
	</outline>
	<anchor name="aboveLC" x="270" y="522"/>
</glyph>
<glyph name="gheup" format="2">
	<unicode hex="0491"/>
	<advance width="426"/>
	<outline>
		<contour>
			<point x="64" y="446" type="line"/>
			<point x="226" y="500" type="line"/>
			<point x="272" y="670" type="line"/>
			<point x="146" y="670" type="line"/>
		</contour>
		<component base="ghe"/>
	</outline>
</glyph>
<glyph name="Kabashkir" format="2">
	<unicode hex="04A0"/>
	<advance width="726"/>
	<outline>
		<contour>
			<point x="430" y="650" type="line"/>
			<point x="106" y="650" type="line"/>
			<point x="80" y="516" type="line"/>
			<point x="244" y="516" type="line"/>
		</contour>
		<component base="Ka" xOffset="114"/>
	</outline>
</glyph>
<glyph name="H.sups" format="2">
	<unicode hex="1D34"/>
	<advance width="442"/>
	<outline>
		<contour>
			<point x="70" y="368" type="line"/>
			<point x="184" y="368" type="line"/>
			<point x="218" y="538" type="line"/>
			<point x="340" y="538" type="line"/>
			<point x="306" y="368" type="line"/>
			<point x="420" y="368" type="line"/>
			<point x="506" y="800" type="line"/>
			<point x="392" y="800" type="line"/>
			<point x="360" y="640" type="line"/>
			<point x="238" y="640" type="line"/>
			<point x="270" y="800" type="line"/>
			<point x="156" y="800" type="line"/>
		</contour>
	</outline>
</glyph>
<glyph name="k.sups" format="2">
	<unicode hex="1D4F"/>
	<advance width="368"/>
	<outline>
		<contour>
			<point x="64" y="368" type="line"/>
			<point x="176" y="368" type="line"/>
			<point x="192" y="448" type="line"/>
			<point x="234" y="488" type="line"/>
			<point x="279" y="368" type="line"/>
			<point x="390" y="368" type="line"/>
			<point x="309" y="551" type="line"/>
			<point x="448" y="700" type="line"/>
			<point x="326" y="700" type="line"/>
			<point x="222" y="582" type="line"/>
			<point x="218" y="582" type="line"/>
			<point x="268" y="828" type="line"/>
			<point x="156" y="828" type="line"/>
		</contour>
	</outline>
</glyph>
<glyph name="m.sups" format="2">
	<unicode hex="1D50"/>
	<advance width="560"/>
	<outline>
		<contour>
			<point x="65" y="368" type="line"/>
			<point x="176" y="368" type="line"/>
			<point x="217" y="578" type="line"/>
			<point x="238" y="602"/>
			<point x="259" y="614"/>
			<point x="270" y="614" type="curve" smooth="yes"/>
			<point x="289" y="614"/>
			<point x="296" y="603"/>
			<point x="296" y="586" type="curve" smooth="yes"/>
			<point x="296" y="577"/>
			<point x="293" y="568"/>
			<point x="291" y="558" type="curve" smooth="yes"/>
			<point x="254" y="368" type="line"/>
			<point x="363" y="368" type="line"/>
			<point x="404" y="578" type="line"/>
			<point x="426" y="603"/>
			<point x="447" y="614"/>
			<point x="459" y="614" type="curve" smooth="yes"/>
			<point x="477" y="614"/>
			<point x="481" y="604"/>
			<point x="481" y="589" type="curve" smooth="yes"/>
			<point x="481" y="578"/>
			<point x="480" y="568"/>
			<point x="478" y="558" type="curve" smooth="yes"/>
			<point x="441" y="368" type="line"/>
			<point x="551" y="368" type="line"/>
			<point x="592" y="571" type="line" smooth="yes"/>
			<point x="595" y="586"/>
			<point x="597" y="605"/>
			<point x="597" y="618" type="curve" smooth="yes"/>
			<point x="597" y="677"/>
			<point x="575" y="708"/>
			<point x="520" y="708" type="curve" smooth="yes"/>
			<point x="476" y="708"/>
			<point x="439" y="679"/>
			<point x="408" y="651" type="curve"/>
			<point x="397" y="686"/>
			<point x="376" y="708"/>
			<point x="334" y="708" type="curve" smooth="yes"/>
			<point x="289" y="708"/>
			<point x="254" y="684"/>
			<point x="224" y="656" type="curve"/>
			<point x="220" y="656" type="line"/>
			<point x="220" y="700" type="line"/>
			<point x="130" y="700" type="line"/>
		</contour>
	</outline>
</glyph>
<glyph name="eng.sups" format="2">
	<unicode hex="1D51"/>
	<advance width="376"/>
	<outline>
		<contour>
			<point x="232" y="236" type="curve" smooth="yes"/>
			<point x="314" y="236"/>
			<point x="352" y="289"/>
			<point x="366" y="358" type="curve" smooth="yes"/>
			<point x="409" y="573" type="line"/>
			<point x="411" y="587"/>
			<point x="415" y="604"/>
			<point x="415" y="619" type="curve" smooth="yes"/>
			<point x="415" y="676"/>
			<point x="389" y="708"/>
			<point x="334" y="708" type="curve" smooth="yes"/>
			<point x="291" y="708"/>
			<point x="254" y="684"/>
			<point x="224" y="656" type="curve"/>
			<point x="220" y="656" type="line"/>
			<point x="220" y="700" type="line"/>
			<point x="130" y="700" type="line"/>
			<point x="64" y="368" type="line"/>
			<point x="176" y="368" type="line"/>
			<point x="217" y="578" type="line"/>
			<point x="239" y="602"/>
			<point x="255" y="614"/>
			<point x="273" y="614" type="curve" smooth="yes"/>
			<point x="289" y="614"/>
			<point x="298" y="605"/>
			<point x="298" y="587" type="curve" smooth="yes"/>
			<point x="298" y="580"/>
			<point x="297" y="571"/>
			<point x="294" y="559" type="curve" smooth="yes"/>
			<point x="256" y="368" type="line" smooth="yes"/>
			<point x="249" y="333"/>
			<point x="243" y="322"/>
			<point x="222" y="322" type="curve" smooth="yes"/>
			<point x="213" y="322"/>
			<point x="204" y="324"/>
			<point x="194" y="328" type="curve"/>
			<point x="161" y="251" type="line"/>
			<point x="186" y="239"/>
			<point x="208" y="236"/>
		</contour>
	</outline>
	<anchor name="aboveLC" x="280" y="712"/>
</glyph>
<glyph name="mmiddletilde" format="2">
	<unicode hex="1D6F"/>
	<advance width="978"/>
	<outline>
		<contour>
			<point x="858" y="134" type="curve" smooth="yes"/>
			<point x="908" y="134"/>
			<point x="958" y="170"/>
			<point x="978" y="252" type="curve"/>
			<point x="894" y="274" type="line"/>
			<point x="884" y="240"/>
			<point x="868" y="232"/>
			<point x="846" y="232" type="curve" smooth="yes"/>
			<point x="780" y="232"/>
			<point x="196" y="288"/>
			<point x="104" y="288" type="curve" smooth="yes"/>
			<point x="54" y="288"/>
			<point x="4" y="252"/>
			<point x="-16" y="170" type="curve"/>
			<point x="68" y="148" type="line"/>
			<point x="78" y="182"/>
			<point x="94" y="190"/>
			<point x="116" y="190" type="curve" smooth="yes"/>
			<point x="182" y="190"/>
			<point x="766" y="134"/>
		</contour>
		<component base="m" xOffset="70"/>
	</outline>
	<anchor name="aboveLC" x="560" y="522"/>
	<anchor name="belowLC" x="440" y="-22"/>
</glyph>
<glyph name="fraction" format="2">
	<unicode hex="2044"/>
	<advance width="98"/>
	<outline>
		<contour>
			<point x="-216" y="-12" type="line"/>
			<point x="-126" y="-12" type="line"/>
			<point x="344" y="672" type="line"/>
			<point x="254" y="672" type="line"/>
		</contour>
	</outline>
</glyph>
<glyph name="plus.subs" format="2">
	<unicode hex="208A"/>
	<advance width="366"/>
	<outline>
		<contour>
			<point x="66" y="-165" type="line"/>
			<point x="166" y="-165" type="line"/>
			<point x="166" y="-38" type="line"/>
			<point x="282" y="-38" type="line"/>
			<point x="282" y="54" type="line"/>
			<point x="166" y="54" type="line"/>
			<point x="166" y="180" type="line"/>
			<point x="66" y="180" type="line"/>
			<point x="66" y="54" type="line"/>
			<point x="-50" y="54" type="line"/>
			<point x="-50" y="-38" type="line"/>
			<point x="66" y="-38" type="line"/>
		</contour>
	</outline>
</glyph>
<glyph name="dong" format="2">
	<unicode hex="20AB"/>
	<advance width="520"/>
	<outline>
		<contour>
			<point x="190" y="116" type="curve" smooth="yes"/>
			<point x="228" y="116"/>
			<point x="268" y="134"/>
			<point x="298" y="162" type="curve"/>
			<point x="300" y="162" type="line"/>
			<point x="302" y="126" type="line"/>
			<point x="410" y="126" type="line"/>
			<point x="514" y="646" type="line"/>
			<point x="384" y="646" type="line"/>
			<point x="358" y="510" type="line"/>
			<point x="346" y="436" type="line"/>
			<point x="326" y="460"/>
			<point x="306" y="472"/>
			<point x="264" y="472" type="curve" smooth="yes"/>
			<point x="172" y="472"/>
			<point x="66" y="393"/>
			<point x="66" y="254" type="curve" smooth="yes"/>
			<point x="66" y="167"/>
			<point x="112" y="116"/>
		</contour>
		<contour>
			<point x="244" y="222" type="curve" smooth="yes"/>
			<point x="218" y="222"/>
			<point x="202" y="239"/>
			<point x="202" y="274" type="curve" smooth="yes"/>
			<point x="202" y="337"/>
			<point x="238" y="366"/>
			<point x="276" y="366" type="curve" smooth="yes"/>
			<point x="296" y="366"/>
			<point x="310" y="358"/>
			<point x="324" y="342" type="curve"/>
			<point x="306" y="254" type="line"/>
			<point x="284" y="230"/>
			<point x="266" y="222"/>
		</contour>
		<contour>
			<point x="222" y="522" type="line"/>
			<point x="489" y="522" type="line"/>
			<point x="560" y="528" type="line"/>
			<point x="574" y="602" type="line"/>
			<point x="238" y="602" type="line"/>
		</contour>
		<contour>
			<point x="24" y="0" type="line"/>
			<point x="418" y="0" type="line"/>
			<point x="434" y="78" type="line"/>
			<point x="40" y="78" type="line"/>
		</contour>
	</outline>
</glyph>
<glyph name="tugrik" format="2">
	<unicode hex="20AE"/>
	<advance width="520"/>
	<outline>
		<contour>
			<point x="122" y="0" type="line"/>
			<point x="282" y="0" type="line"/>
			<point x="384" y="510" type="line"/>
			<point x="536" y="510" type="line"/>
			<point x="560" y="634" type="line"/>
			<point x="96" y="634" type="line"/>
			<point x="72" y="510" type="line"/>
			<point x="224" y="510" type="line"/>
		</contour>
		<contour>
			<point x="40" y="66" type="line"/>
			<point x="150" y="118" type="line"/>
			<point x="310" y="186" type="line"/>
			<point x="460" y="258" type="line"/>
			<point x="434" y="322" type="line"/>
			<point x="334" y="272" type="line"/>
			<point x="174" y="204" type="line"/>
			<point x="14" y="130" type="line"/>
		</contour>
		<contour>
			<point x="70" y="210" type="line"/>
			<point x="180" y="262" type="line"/>
			<point x="340" y="330" type="line"/>
			<point x="490" y="402" type="line"/>
			<point x="464" y="466" type="line"/>
			<point x="364" y="416" type="line"/>
			<point x="204" y="348" type="line"/>
			<point x="44" y="274" type="line"/>
		</contour>
	</outline>
</glyph>
<glyph name="arrowup" format="2">
	<unicode hex="2191"/>
	<advance width="592"/>
	<outline>
		<contour>
			<point x="232" y="-28" type="line"/>
			<point x="360" y="-28" type="line"/>
			<point x="360" y="318" type="line"/>
			<point x="482" y="188" type="line"/>
			<point x="566" y="262" type="line"/>
			<point x="298" y="530" type="line"/>
			<point x="294" y="530" type="line"/>
			<point x="26" y="262" type="line"/>
			<point x="110" y="188" type="line"/>
			<point x="232" y="318" type="line"/>
		</contour>
	</outline>
</glyph>
<glyph name="partialdiff" format="2">
	<unicode hex="2202"/>
	<advance width="580"/>
	<outline>
		<contour>
			<point x="207" y="-10" type="curve" smooth="yes"/>
			<point x="418" y="-10"/>
			<point x="550" y="238"/>
			<point x="550" y="447" type="curve" smooth="yes"/>
			<point x="550" y="586"/>
			<point x="472" y="670"/>
			<point x="339" y="670" type="curve" smooth="yes"/>
			<point x="278" y="670"/>
			<point x="224" y="648"/>
			<point x="172" y="613" type="curve"/>
			<point x="237" y="517" type="line"/>
			<point x="258" y="532"/>
			<point x="288" y="544"/>
			<point x="316" y="544" type="curve" smooth="yes"/>
			<point x="372" y="544"/>
			<point x="398" y="500"/>
			<point x="398" y="437" type="curve" smooth="yes"/>
			<point x="398" y="314"/>
			<point x="330" y="118"/>
			<point x="233" y="118" type="curve" smooth="yes"/>
			<point x="195" y="118"/>
			<point x="178" y="148"/>
			<point x="178" y="176" type="curve" smooth="yes"/>
			<point x="178" y="232"/>
			<point x="213" y="298"/>
			<point x="272" y="298" type="curve" smooth="yes"/>
			<point x="320" y="298"/>
			<point x="344" y="261"/>
			<point x="355" y="227" type="curve"/>
			<point x="395" y="336" type="line"/>
			<point x="369" y="392"/>
			<point x="323" y="421"/>
			<point x="266" y="421" type="curve" smooth="yes"/>
			<point x="124" y="421"/>
			<point x="31" y="280"/>
			<point x="31" y="157" type="curve" smooth="yes"/>
			<point x="31" y="52"/>
			<point x="115" y="-10"/>
		</contour>
	</outline>
</glyph>
<glyph name="Delta" format="2">
	<unicode hex="2206"/>
	<unicode hex="0394"/>
	<advance width="596"/>
	<outline>
		<contour>
			<point x="-22" y="0" type="line"/>
			<point x="530" y="0" type="line"/>
			<point x="548" y="96" type="line"/>
			<point x="480" y="650" type="line"/>
			<point x="286" y="650" type="line"/>
			<point x="-4" y="96" type="line"/>
		</contour>
		<contour>
			<point x="172" y="134" type="line"/>
			<point x="278" y="344" type="line" smooth="yes"/>
			<point x="306" y="406"/>
			<point x="328" y="466"/>
			<point x="354" y="530" type="curve"/>
			<point x="358" y="530" type="line"/>
			<point x="358" y="464"/>
			<point x="360" y="406"/>
			<point x="362" y="344" type="curve" smooth="yes"/>
			<point x="378" y="134" type="line"/>
		</contour>
	</outline>
	<anchor name="aboveUC" x="380" y="672"/>
</glyph>
<glyph name="ceilingleft" format="2">
	<unicode hex="231C"/>
	<advance width="344"/>
	<outline>
		<contour>
			<point x="22" y="0" type="line"/>
			<point x="142" y="0" type="line"/>
			<point x="262" y="608" type="line"/>
			<point x="356" y="608" type="line"/>
			<point x="372" y="692" type="line"/>
			<point x="160" y="692" type="line"/>
		</contour>
	</outline>
</glyph>
<glyph name="integralbt" format="2">
	<unicode hex="2321"/>
	<advance width="394"/>
	<outline>
		<contour>
			<point x="75" y="-158" type="curve" smooth="yes"/>
			<point x="241" y="-158"/>
			<point x="274" y="-50"/>
			<point x="274" y="93" type="curve"/>
			<point x="274" y="1000" type="line"/>
			<point x="130" y="1000" type="line"/>
			<point x="130" y="89" type="line"/>
			<point x="130" y="-5"/>
			<point x="118" y="-38"/>
			<point x="67" y="-38" type="curve" smooth="yes"/>
			<point x="53" y="-38"/>
			<point x="41" y="-37"/>
			<point x="31" y="-34" type="curve"/>
			<point x="16" y="-150" type="line"/>
			<point x="28" y="-153"/>
			<point x="51" y="-158"/>
		</contour>
	</outline>
</glyph>
<glyph name="trianglesmallleftwhite" format="2">
	<unicode hex="25C3"/>
	<advance width="344"/>
	<outline>
		<contour>
			<point x="322" y="67" type="line"/>
			<point x="326" y="67" type="line"/>
			<point x="326" y="457" type="line"/>
			<point x="322" y="457" type="line"/>
			<point x="-4" y="264" type="line"/>
			<point x="-4" y="260" type="line"/>
		</contour>
		<contour>
			<point x="250" y="198" type="line"/>
			<point x="140" y="262" type="line"/>
			<point x="250" y="326" type="line"/>
		</contour>
	</outline>
</glyph>
<glyph name="OO" format="2">
	<unicode hex="A74E"/>
	<advance width="1010"/>
	<outline>
		<contour>
			<point x="250" y="-12" type="curve" smooth="yes"/>
			<point x="338" y="-12"/>
			<point x="420" y="22"/>
			<point x="502" y="158" type="curve"/>
			<point x="468" y="158" type="line"/>
			<point x="494" y="22"/>
			<point x="574" y="-12"/>
			<point x="652" y="-12" type="curve" smooth="yes"/>
			<point x="804" y="-12"/>
			<point x="984" y="152"/>
			<point x="984" y="432" type="curve" smooth="yes"/>
			<point x="984" y="578"/>
			<point x="904" y="662"/>
			<point x="790" y="662" type="curve" smooth="yes"/>
			<point x="702" y="662"/>
			<point x="620" y="628"/>
			<point x="538" y="492" type="curve"/>
			<point x="572" y="492" type="line"/>
			<point x="546" y="628"/>
			<point x="466" y="662"/>
			<point x="388" y="662" type="curve" smooth="yes"/>
			<point x="236" y="662"/>
			<point x="56" y="498"/>
			<point x="56" y="218" type="curve" smooth="yes"/>
			<point x="56" y="72"/>
			<point x="136" y="-12"/>
		</contour>
		<contour>
			<point x="298" y="126" type="curve" smooth="yes"/>
			<point x="250" y="126"/>
			<point x="220" y="166"/>
			<point x="220" y="242" type="curve" smooth="yes"/>
			<point x="220" y="402"/>
			<point x="310" y="524"/>
			<point x="380" y="524" type="curve" smooth="yes"/>
			<point x="428" y="524"/>
			<point x="458" y="484"/>
			<point x="458" y="408" type="curve" smooth="yes"/>
			<point x="458" y="248"/>
			<point x="368" y="126"/>
		</contour>
		<contour>
			<point x="660" y="126" type="curve" smooth="yes"/>
			<point x="612" y="126"/>
			<point x="582" y="166"/>
			<point x="582" y="242" type="curve" smooth="yes"/>
			<point x="582" y="402"/>
			<point x="672" y="524"/>
			<point x="742" y="524" type="curve" smooth="yes"/>
			<point x="790" y="524"/>
			<point x="820" y="484"/>
			<point x="820" y="408" type="curve" smooth="yes"/>
			<point x="820" y="248"/>
			<point x="730" y="126"/>
		</contour>
	</outline>
	<anchor name="aboveUC" x="590" y="672"/>
	<anchor name="belowLC" x="460" y="-22"/>
</glyph>
<glyph name="Rrotunda" format="2">
	<unicode hex="A75A"/>
	<advance width="492"/>
	<outline>
		<contour>
			<point x="302" y="-12" type="curve" smooth="yes"/>
			<point x="348" y="-12"/>
			<point x="388" y="-5"/>
			<point x="412" y="8" type="curve"/>
			<point x="386" y="126" type="line"/>
			<point x="370" y="121"/>
			<point x="341" y="116"/>
			<point x="318" y="116" type="curve" smooth="yes"/>
			<point x="272" y="116"/>
			<point x="234" y="122"/>
			<point x="202" y="160" type="curve"/>
			<point x="395" y="275"/>
			<point x="500" y="372"/>
			<point x="500" y="510" type="curve" smooth="yes"/>
			<point x="500" y="613"/>
			<point x="432" y="662"/>
			<point x="324" y="662" type="curve" smooth="yes"/>
			<point x="242" y="662"/>
			<point x="168" y="628"/>
			<point x="96" y="559" type="curve"/>
			<point x="165" y="476" type="line"/>
			<point x="197" y="504"/>
			<point x="237" y="524"/>
			<point x="278" y="524" type="curve" smooth="yes"/>
			<point x="318" y="524"/>
			<point x="342" y="505"/>
			<point x="342" y="460" type="curve" smooth="yes"/>
			<point x="342" y="395"/>
			<point x="251" y="309"/>
			<point x="54" y="210" type="curve"/>
			<point x="62" y="58"/>
			<point x="158" y="-12"/>
		</contour>
	</outline>
	<anchor name="aboveUC" x="350" y="672"/>
	<anchor name="belowLC" x="210" y="-22"/>
</glyph>
<glyph name="rinsular" format="2">
	<unicode hex="A783"/>
	<advance width="562"/>
	<outline>
		<contour>
			<point x="-28" y="-176" type="line"/>
			<point x="132" y="-176" type="line"/>
			<point x="222" y="284" type="line"/>
			<point x="274" y="360"/>
			<point x="302" y="382"/>
			<point x="340" y="382" type="curve" smooth="yes"/>
			<point x="359" y="382"/>
			<point x="372" y="364"/>
			<point x="372" y="328" type="curve" smooth="yes"/>
			<point x="372" y="268"/>
			<point x="340" y="192"/>
			<point x="254" y="116" type="curve"/>
			<point x="266" y="26"/>
			<point x="336" y="-12"/>
			<point x="412" y="-12" type="curve" smooth="yes"/>
			<point x="440" y="-12"/>
			<point x="468" y="-4"/>
			<point x="482" y="4" type="curve"/>
			<point x="474" y="120" type="line"/>
			<point x="468" y="118"/>
			<point x="460" y="116"/>
			<point x="448" y="116" type="curve" smooth="yes"/>
			<point x="430" y="116"/>
			<point x="418" y="118"/>
			<point x="408" y="130" type="curve"/>
			<point x="492" y="206"/>
			<point x="540" y="296"/>
			<point x="540" y="380" type="curve" smooth="yes"/>
			<point x="540" y="468"/>
			<point x="488" y="512"/>
			<point x="408" y="512" type="curve" smooth="yes"/>
			<point x="336" y="512"/>
			<point x="294" y="480"/>
			<point x="239" y="416" type="curve"/>
			<point x="235" y="416" type="line"/>
			<point x="238" y="500" type="line"/>
			<point x="108" y="500" type="line"/>
		</contour>
	</outline>
	<anchor name="aboveLC" x="360" y="522"/>
	<anchor name="belowLC" x="60" y="-182"/>
</glyph>
<glyph name="Lbelt" format="2">
	<unicode hex="A7AD"/>
	<advance width="574"/>
	<outline>
		<contour>
			<point x="139" y="278" type="curve" smooth="yes"/>
			<point x="454" y="278" type="line"/>
			<point x="470" y="374" type="line"/>
			<point x="139" y="374" type="line" smooth="yes"/>
			<point x="109" y="374"/>
			<point x="96" y="388"/>
			<point x="96" y="404" type="curve" smooth="yes"/>
			<point x="96" y="420"/>
			<point x="108" y="432"/>
			<point x="129" y="432" type="curve" smooth="yes"/>
			<point x="157" y="432"/>
			<point x="164" y="407"/>
			<point x="164" y="388" type="curve"/>
			<point x="218" y="406" type="line"/>
			<point x="218" y="454"/>
			<point x="191" y="510"/>
			<point x="118" y="510" type="curve" smooth="yes"/>
			<point x="51" y="510"/>
			<point x="10" y="450"/>
			<point x="10" y="402" type="curve" smooth="yes"/>
			<point x="10" y="330"/>
			<point x="58" y="278"/>
		</contour>
		<component base="L" xOffset="60"/>
	</outline>
	<anchor name="aboveUC" x="300" y="672"/>
	<anchor name="belowLC" x="290" y="-22"/>
</glyph>
<glyph name="Rinsular.x" format="2">
	<advance width="612"/>
	<outline>
		<contour>
			<point x="26" y="0" type="line"/>
			<point x="186" y="0" type="line"/>
			<point x="274" y="438" type="line"/>
			<point x="318" y="498"/>
			<point x="376" y="524"/>
			<point x="415" y="524" type="curve" smooth="yes"/>
			<point x="446" y="524"/>
			<point x="462" y="509"/>
			<point x="462" y="475" type="curve" smooth="yes"/>
			<point x="462" y="416"/>
			<point x="414" y="344"/>
			<point x="274" y="268" type="curve"/>
			<point x="274" y="264" type="line"/>
			<point x="380" y="0" type="line"/>
			<point x="540" y="0" type="line"/>
			<point x="434" y="228" type="line"/>
			<point x="556" y="318"/>
			<point x="620" y="407"/>
			<point x="620" y="528" type="curve" smooth="yes"/>
			<point x="620" y="618"/>
			<point x="566" y="662"/>
			<point x="474" y="662" type="curve" smooth="yes"/>
			<point x="412" y="662"/>
			<point x="355" y="637"/>
			<point x="297" y="584" type="curve"/>
			<point x="310" y="650" type="line"/>
			<point x="156" y="650" type="line"/>
		</contour>
	</outline>
</glyph>
<glyph name="Their" format="2">
	<advance width="1252"/>
	<outline>
		<contour>
			<point x="827" y="202" type="line"/>
			<point x="941" y="155"/>
			<point x="977" y="148"/>
			<point x="1060" y="148" type="curve" smooth="yes"/>
			<point x="1183" y="148"/>
			<point x="1281" y="234"/>
			<point x="1303" y="344" type="curve" smooth="yes"/>
			<point x="1312" y="390"/>
			<point x="1307" y="424"/>
			<point x="1291" y="458" type="curve"/>
			<point x="1154" y="404" type="line"/>
			<point x="1160" y="386"/>
			<point x="1161" y="372"/>
			<point x="1156" y="348" type="curve" smooth="yes"/>
			<point x="1144" y="290"/>
			<point x="1105" y="248"/>
			<point x="1044" y="248" type="curve" smooth="yes"/>
			<point x="982" y="248"/>
			<point x="952" y="259"/>
			<point x="886" y="284" type="curve"/>
		</contour>
		<component base="They"/>
	</outline>
</glyph>
<glyph name="X.sups" format="2">
	<advance width="386"/>
	<outline>
		<contour>
			<point x="30" y="368" type="line"/>
			<point x="156" y="368" type="line"/>
			<point x="200" y="442" type="line" smooth="yes"/>
			<point x="214" y="466"/>
			<point x="226" y="490"/>
			<point x="240" y="520" type="curve"/>
			<point x="244" y="520" type="line"/>
			<point x="250" y="490"/>
			<point x="255" y="466"/>
			<point x="260" y="442" type="curve" smooth="yes"/>
			<point x="276" y="368" type="line"/>
			<point x="402" y="368" type="line"/>
			<point x="330" y="584" type="line"/>
			<point x="482" y="800" type="line"/>
			<point x="356" y="800" type="line"/>
			<point x="322" y="734" type="line" smooth="yes"/>
			<point x="311" y="712"/>
			<point x="298" y="686"/>
			<point x="282" y="654" type="curve"/>
			<point x="278" y="654" type="line"/>
			<point x="272" y="686"/>
			<point x="267" y="712"/>
			<point x="263" y="734" type="curve" smooth="yes"/>
			<point x="250" y="800" type="line"/>
			<point x="124" y="800" type="line"/>
			<point x="188" y="590" type="line"/>
		</contour>
	</outline>
</glyph>
<glyph name="a.a" format="2">
	<advance width="522"/>
	<outline>
		<contour>
			<point x="144" y="-12" type="curve" smooth="yes"/>
			<point x="194" y="-12"/>
			<point x="246" y="16"/>
			<point x="278" y="48" type="curve"/>
			<point x="282" y="48" type="line"/>
			<point x="285" y="0" type="line"/>
			<point x="414" y="0" type="line"/>
			<point x="468" y="270" type="line" smooth="yes"/>
			<point x="474" y="298"/>
			<point x="476" y="322"/>
			<point x="476" y="344" type="curve" smooth="yes"/>
			<point x="476" y="456"/>
			<point x="410" y="512"/>
			<point x="296" y="512" type="curve" smooth="yes"/>
			<point x="220" y="512"/>
			<point x="156" y="494"/>
			<point x="94" y="460" type="curve"/>
			<point x="142" y="356" type="line"/>
			<point x="190" y="378"/>
			<point x="220" y="388"/>
			<point x="260" y="388" type="curve" smooth="yes"/>
			<point x="294" y="388"/>
			<point x="318" y="372"/>
			<point x="318" y="328" type="curve" smooth="yes"/>
			<point x="318" y="324"/>
			<point x="318" y="320"/>
			<point x="316" y="314" type="curve"/>
			<point x="154" y="310"/>
			<point x="18" y="262"/>
			<point x="18" y="114" type="curve" smooth="yes"/>
			<point x="18" y="38"/>
			<point x="74" y="-12"/>
		</contour>
		<contour>
			<point x="220" y="110" type="curve" smooth="yes"/>
			<point x="192" y="110"/>
			<point x="174" y="124"/>
			<point x="174" y="146" type="curve" smooth="yes"/>
			<point x="174" y="184"/>
			<point x="208" y="216"/>
			<point x="298" y="218" type="curve"/>
			<point x="282" y="142" type="line"/>
			<point x="262" y="124"/>
			<point x="244" y="110"/>
		</contour>
	</outline>
	<anchor name="aboveLC" x="310" y="522"/>
	<anchor name="belowLC" x="220" y="-22"/>
	<anchor name="ogonekLC" x="320" y="0"/>
</glyph>
<glyph name="brevegrave.cap" format="2">
	<outline>
		<contour>
			<point x="134" y="694" type="curve" smooth="yes"/>
			<point x="242" y="694"/>
			<point x="302" y="738"/>
			<point x="328" y="834" type="curve"/>
			<point x="250" y="850" type="line"/>
			<point x="230" y="804"/>
			<point x="195" y="782"/>
			<point x="150" y="782" type="curve" smooth="yes"/>
			<point x="102" y="782"/>
			<point x="78" y="804"/>
			<point x="74" y="850" type="curve"/>
			<point x="-8" y="834" type="line"/>
			<point x="-8" y="734"/>
			<point x="42" y="694"/>
		</contour>
		<contour>
			<point x="130" y="850" type="line"/>
			<point x="210" y="850" type="line"/>
			<point x="180" y="980" type="line"/>
			<point x="60" y="980" type="line"/>
			<point x="50" y="962" type="line"/>
		</contour>
	</outline>
	<anchor name="_aboveUC" x="130" y="672"/>
</glyph>
<glyph name="breveinvertedcmb.cap" format="2">
	<outline>
		<contour>
			<point x="58" y="690" type="line"/>
			<point x="74" y="730"/>
			<point x="106" y="748"/>
			<point x="146" y="748" type="curve" smooth="yes"/>
			<point x="187" y="748"/>
			<point x="212" y="732"/>
			<point x="216" y="690" type="curve"/>
			<point x="310" y="706" type="line"/>
			<point x="310" y="786"/>
			<point x="272" y="846"/>
			<point x="164" y="846" type="curve" smooth="yes"/>
			<point x="62" y="846"/>
			<point x="-4" y="802"/>
			<point x="-30" y="706" type="curve"/>
		</contour>
	</outline>
	<anchor name="_aboveUC" x="130" y="672"/>
</glyph>
<glyph name="circumflexgrave" format="2">
	<outline>
		<contour>
			<point x="-70" y="570" type="line"/>
			<point x="47" y="570" type="line"/>
			<point x="132" y="646" type="line"/>
			<point x="135" y="646" type="line"/>
			<point x="182" y="570" type="line"/>
			<point x="290" y="570" type="line"/>
			<point x="218" y="740" type="line"/>
			<point x="74" y="740" type="line"/>
		</contour>
		<contour>
			<point x="-60" y="680" type="line"/>
			<point x="10" y="680" type="line"/>
			<point x="-10" y="820" type="line"/>
			<point x="-120" y="820" type="line"/>
			<point x="-130" y="802" type="line"/>
		</contour>
	</outline>
	<anchor name="_aboveLC" x="100" y="522"/>
</glyph>
<glyph name="five.tnum" format="2">
	<advance width="520"/>
	<outline>
		<contour>
			<point x="188" y="-90" type="curve" smooth="yes"/>
			<point x="320" y="-90"/>
			<point x="450" y="8"/>
			<point x="450" y="166" type="curve" smooth="yes"/>
			<point x="450" y="282"/>
			<point x="376" y="342"/>
			<point x="280" y="342" type="curve" smooth="yes"/>
			<point x="262" y="342"/>
			<point x="246" y="340"/>
			<point x="228" y="332" type="curve"/>
			<point x="260" y="446" type="line"/>
			<point x="480" y="446" type="line"/>
			<point x="506" y="580" type="line"/>
			<point x="148" y="580" type="line"/>
			<point x="66" y="244" type="line"/>
			<point x="124" y="196" type="line"/>
			<point x="168" y="219"/>
			<point x="182" y="224"/>
			<point x="212" y="224" type="curve" smooth="yes"/>
			<point x="260" y="224"/>
			<point x="288" y="196"/>
			<point x="288" y="140" type="curve" smooth="yes"/>
			<point x="288" y="76"/>
			<point x="242" y="38"/>
			<point x="190" y="38" type="curve" smooth="yes"/>
			<point x="146" y="38"/>
			<point x="106" y="62"/>
			<point x="72" y="108" type="curve"/>
			<point x="-28" y="26" type="line"/>
			<point x="34" y="-60"/>
			<point x="112" y="-90"/>
		</contour>
	</outline>
</glyph>
<glyph name="jcrossedtail.x" format="2">
	<advance width="378"/>
	<outline>
		<contour>
			<point x="228" y="-220" type="curve"/>
			<point x="330" y="-182" type="line"/>
			<point x="290" y="28"/>
			<point x="156" y="116"/>
			<point x="66" y="116" type="curve" smooth="yes"/>
			<point x="-46" y="116"/>
			<point x="-104" y="42"/>
			<point x="-104" y="-40" type="curve" smooth="yes"/>
			<point x="-104" y="-128"/>
			<point x="-46" y="-188"/>
			<point x="50" y="-188" type="curve" smooth="yes"/>
			<point x="172" y="-188"/>
			<point x="248" y="-88"/>
			<point x="271" y="26" type="curve" smooth="yes"/>
			<point x="366" y="500" type="line"/>
			<point x="206" y="500" type="line"/>
			<point x="107" y="8" type="line" smooth="yes"/>
			<point x="96" y="-46"/>
			<point x="78" y="-62"/>
			<point x="50" y="-62" type="curve" smooth="yes"/>
			<point x="32" y="-62"/>
			<point x="16" y="-50"/>
			<point x="16" y="-32" type="curve" smooth="yes"/>
			<point x="16" y="-8"/>
			<point x="32" y="10"/>
			<point x="58" y="10" type="curve" smooth="yes"/>
			<point x="118" y="10"/>
			<point x="202" y="-68"/>
		</contour>
	</outline>
	<anchor name="aboveLC" x="290" y="522"/>
	<anchor name="belowLC" x="60" y="-182"/>
</glyph>
<glyph name="ka.b" format="2">
	<advance width="544"/>
	<outline>
		<contour>
			<point x="8" y="0" type="line"/>
			<point x="168" y="0" type="line"/>
			<point x="204" y="184" type="line"/>
			<point x="266" y="184" type="line"/>
			<point x="326" y="0" type="line"/>
			<point x="488" y="0" type="line"/>
			<point x="392" y="250" type="line"/>
			<point x="428" y="306" type="line" smooth="yes"/>
			<point x="448" y="338"/>
			<point x="462" y="350"/>
			<point x="478" y="350" type="curve" smooth="yes"/>
			<point x="488" y="350"/>
			<point x="494" y="348"/>
			<point x="500" y="346" type="curve"/>
			<point x="544" y="506" type="line"/>
			<point x="530" y="510"/>
			<point x="516" y="512"/>
			<point x="498" y="512" type="curve" smooth="yes"/>
			<point x="434" y="512"/>
			<point x="389" y="490"/>
			<point x="340" y="408" type="curve" smooth="yes"/>
			<point x="289" y="322" type="line"/>
			<point x="232" y="322" type="line"/>
			<point x="308" y="696" type="line"/>
			<point x="148" y="696" type="line"/>
		</contour>
	</outline>
</glyph>
<glyph name="l.supa" format="2">
	<advance width="186"/>
	<outline>
		<contour>
			<point x="64" y="368" type="line"/>
			<point x="176" y="368" type="line"/>
			<point x="268" y="828" type="line"/>
			<point x="156" y="828" type="line"/>
		</contour>
	</outline>
</glyph>
<glyph name="lenisacutecmb" format="2">
	<outline>
		<contour>
			<point x="-19" y="566" type="line"/>
			<point x="62" y="576"/>
			<point x="124" y="630"/>
			<point x="124" y="706" type="curve" smooth="yes"/>
			<point x="124" y="764"/>
			<point x="80" y="802"/>
			<point x="-20" y="806" type="curve"/>
			<point x="-46" y="712" type="line"/>
			<point x="-4" y="708"/>
			<point x="12" y="696"/>
			<point x="12" y="672" type="curve" smooth="yes"/>
			<point x="12" y="648"/>
			<point x="-4" y="636"/>
			<point x="-22" y="632" type="curve"/>
		</contour>
		<contour>
			<point x="140" y="570" type="line"/>
			<point x="220" y="570" type="line"/>
			<point x="350" y="782" type="line"/>
			<point x="340" y="800" type="line"/>
			<point x="210" y="800" type="line"/>
		</contour>
	</outline>
	<anchor name="_aboveLC" x="100" y="522"/>
</glyph>
<glyph name="one.tnum" format="2">
	<advance width="520"/>
	<outline>
		<contour>
			<point x="16" y="0" type="line"/>
			<point x="416" y="0" type="line"/>
			<point x="442" y="128" type="line"/>
			<point x="330" y="128" type="line"/>
			<point x="420" y="580" type="line"/>
			<point x="302" y="580" type="line"/>
			<point x="252" y="550"/>
			<point x="206" y="532"/>
			<point x="132" y="520" type="curve"/>
			<point x="112" y="420" type="line"/>
			<point x="228" y="420" type="line"/>
			<point x="170" y="128" type="line"/>
			<point x="42" y="128" type="line"/>
		</contour>
	</outline>
</glyph>
<glyph name="phi.a" format="2">
	<advance width="722"/>
	<outline>
		<contour>
			<point x="202" y="-176" type="line"/>
			<point x="346" y="-176" type="line"/>
			<point x="508" y="630" type="line"/>
			<point x="364" y="630" type="line"/>
		</contour>
		<contour>
			<point x="276" y="-8" type="curve"/>
			<point x="280" y="110" type="line"/>
			<point x="222" y="112"/>
			<point x="186" y="152"/>
			<point x="186" y="228" type="curve" smooth="yes"/>
			<point x="186" y="312"/>
			<point x="252" y="382"/>
			<point x="328" y="388" type="curve"/>
			<point x="360" y="506" type="line"/>
			<point x="190" y="502"/>
			<point x="24" y="398"/>
			<point x="24" y="216" type="curve" smooth="yes"/>
			<point x="24" y="62"/>
			<point x="142" y="-6"/>
		</contour>
		<contour>
			<point x="360" y="-8" type="line"/>
			<point x="530" y="-4"/>
			<point x="696" y="100"/>
			<point x="696" y="282" type="curve" smooth="yes"/>
			<point x="696" y="436"/>
			<point x="578" y="504"/>
			<point x="444" y="506" type="curve"/>
			<point x="440" y="388" type="line"/>
			<point x="498" y="386"/>
			<point x="534" y="349"/>
			<point x="534" y="270" type="curve" smooth="yes"/>
			<point x="534" y="186"/>
			<point x="468" y="116"/>
			<point x="392" y="110" type="curve"/>
		</contour>
	</outline>
	<anchor name="aboveLC" x="430" y="662"/>
	<anchor name="belowLC" x="280" y="-182"/>
</glyph>
<glyph name="three.tnum" format="2">
	<advance width="520"/>
	<outline>
		<contour>
			<point x="198" y="-92" type="curve" smooth="yes"/>
			<point x="334" y="-92"/>
			<point x="440" y="-16"/>
			<point x="440" y="116" type="curve" smooth="yes"/>
			<point x="440" y="178"/>
			<point x="412" y="224"/>
			<point x="354" y="254" type="curve"/>
			<point x="354" y="258" type="line"/>
			<point x="438" y="294"/>
			<point x="484" y="352"/>
			<point x="484" y="436" type="curve" smooth="yes"/>
			<point x="484" y="530"/>
			<point x="402" y="592"/>
			<point x="284" y="592" type="curve" smooth="yes"/>
			<point x="216" y="592"/>
			<point x="154" y="578"/>
			<point x="86" y="532" type="curve"/>
			<point x="162" y="430" type="line"/>
			<point x="202" y="454"/>
			<point x="226" y="466"/>
			<point x="254" y="466" type="curve" smooth="yes"/>
			<point x="292" y="466"/>
			<point x="320" y="444"/>
			<point x="320" y="410" type="curve" smooth="yes"/>
			<point x="320" y="354"/>
			<point x="286" y="314"/>
			<point x="166" y="314" type="curve"/>
			<point x="144" y="202" type="line"/>
			<point x="254" y="202"/>
			<point x="280" y="174"/>
			<point x="280" y="124" type="curve" smooth="yes"/>
			<point x="280" y="72"/>
			<point x="244" y="36"/>
			<point x="184" y="36" type="curve" smooth="yes"/>
			<point x="148" y="36"/>
			<point x="103" y="60"/>
			<point x="72" y="106" type="curve"/>
			<point x="-28" y="24" type="line"/>
			<point x="34" y="-62"/>
			<point x="122" y="-92"/>
		</contour>
	</outline>
</glyph>
<glyph name="zero.0s" format="2">
	<advance width="520"/>
	<outline>
		<contour>
			<point x="303" y="134" type="line"/>
			<point x="413" y="134" type="line"/>
			<point x="245" y="504" type="line"/>
			<point x="135" y="504" type="line"/>
		</contour>
		<component base="zero"/>
	</outline>
</glyph>
<glyph name="zhedescender.a" format="2">
	<advance width="810"/>
	<outline>
		<contour>
			<point x="568" y="-172" type="line"/>
			<point x="692" y="-172" type="line"/>
			<point x="750" y="18" type="line"/>
			<point x="770" y="134" type="line"/>
			<point x="592" y="134" type="line"/>
			<point x="566" y="0" type="line"/>
			<point x="596" y="0" type="line"/>
		</contour>
		<component base="zhe.a"/>
	</outline>
</glyph>
